<?xml version="1.0" standalone="no"?>
<!DOCTYPE svg PUBLIC "-//W3C//DTD SVG 1.1//EN" "http://www.w3.org/Graphics/SVG/1.1/DTD/svg11.dtd" >
<svg xmlns="http://www.w3.org/2000/svg">
<metadata></metadata>
<defs>
<font id="turkcell_saturamedium" horiz-adv-x="940" >
<font-face units-per-em="2048" ascent="1638" descent="-410" />
<missing-glyph horiz-adv-x="389" />
<glyph horiz-adv-x="2048" />
<glyph horiz-adv-x="2048" />
<glyph unicode="&#xd;" horiz-adv-x="2048" />
<glyph unicode=" "  horiz-adv-x="389" />
<glyph unicode="&#x09;" horiz-adv-x="389" />
<glyph unicode="&#xa0;" horiz-adv-x="389" />
<glyph unicode="!" horiz-adv-x="507" d="M131 104q0 51 35 87t86 36q53 0 88 -36.5t35 -86.5q0 -51 -35 -84.5t-88 -33.5q-51 0 -86 33.5t-35 84.5zM145 1247q0 57 31 88t78 31q49 0 80 -30.5t31 -88.5q0 -37 -2.5 -97t-6.5 -162.5t-10 -257.5t-14 -378h-154q-8 223 -14 378t-10 257.5t-6.5 162.5t-2.5 97z" />
<glyph unicode="&#x22;" horiz-adv-x="673" d="M98 1348h183l-21 -398h-143zM395 1348h183l-21 -398h-143z" />
<glyph unicode="#" horiz-adv-x="942" d="M59 381v131h146l26 258h-141v131h156l39 365h145l-39 -365h211l39 365h145l-38 -365h135v-131h-148l-28 -258h143v-131h-156l-39 -381h-145l39 381h-211l-39 -381h-145l39 381h-134zM350 512h211l27 258h-211z" />
<glyph unicode="$" d="M63 201l148 106q12 -23 29.5 -47t43 -47t60.5 -40t82 -23v428q-55 25 -111.5 54.5t-100.5 71t-71.5 100t-27.5 142.5q0 141 84 227.5t227 104.5v119h127v-117q70 -6 121 -26.5t88 -48t61.5 -59.5t36.5 -61l-145 -98q-18 39 -57.5 75t-104.5 48v-391q57 -27 113.5 -58.5 t102.5 -75.5t74.5 -105.5t28.5 -147.5q0 -84 -25.5 -145.5t-69.5 -102.5t-102.5 -64.5t-121.5 -31.5v-176h-127v172q-145 10 -234.5 72.5t-128.5 144.5zM299 956q0 -61 35 -103t92 -75v332q-66 -10 -96.5 -52t-30.5 -102zM553 150q74 16 102.5 65t28.5 115t-36 110.5 t-95 77.5v-368z" />
<glyph unicode="%" horiz-adv-x="1773" d="M96 864q0 223 79 315.5t247 92.5q78 0 135 -20.5t95 -66.5t56.5 -121t18.5 -183q0 -109 -19.5 -186t-59.5 -125t-101.5 -69.5t-147.5 -21.5q-156 0 -229.5 86t-73.5 299zM260 858q0 -139 33 -192.5t113 -53.5q39 0 68.5 13.5t50 45t29.5 86t9 136.5q0 139 -34.5 191.5 t-114.5 52.5q-41 0 -70 -12.5t-47 -44t-27.5 -86t-9.5 -136.5zM440 0l731 1266h168l-731 -1266h-168zM1047 375q0 223 78.5 315t246.5 92q80 0 137.5 -20.5t94 -66.5t55 -120.5t18.5 -183.5t-19.5 -185.5t-59 -124.5t-101 -69.5t-147.5 -21.5q-154 0 -228.5 86t-74.5 299z M1210 369q0 -139 33 -192.5t115 -53.5q39 0 68.5 13.5t49 45t28.5 86t9 135.5q0 139 -34.5 191.5t-114.5 52.5q-39 0 -67.5 -12t-48 -44t-29 -86t-9.5 -136z" />
<glyph unicode="&#x26;" horiz-adv-x="1189" d="M78 309q0 127 69.5 222.5t231.5 185.5q-57 78 -100 164t-43 184q0 57 17 111.5t57 96.5t104.5 67.5t158.5 25.5t158 -27.5t103.5 -70.5t57 -97.5t17.5 -107.5q0 -127 -66.5 -218t-213.5 -179l248 -322q37 55 60.5 115.5t39.5 120.5l172 -56q-23 -74 -62.5 -157.5 t-103.5 -161.5l162 -205h-225l-68 90q-72 -49 -162 -78.5t-203 -29.5q-199 0 -304 89t-105 238zM268 330q0 -86 61.5 -137.5t168.5 -51.5q78 0 142.5 20.5t113.5 57.5l-285 377q-111 -66 -156 -128t-45 -138zM418 1063q0 -76 31 -139.5t88 -139.5q106 63 148 124t42 145 q0 66 -37 112.5t-121 46.5q-63 0 -107 -34.5t-44 -114.5z" />
<glyph unicode="'" horiz-adv-x="376" d="M98 1348h183l-21 -398h-143z" />
<glyph unicode="(" horiz-adv-x="657" d="M117 494q0 283 88 529.5t284 426.5l113 -107q-92 -96 -151.5 -206.5t-93 -223t-46 -220t-12.5 -199.5t12.5 -201t46 -221.5t93 -223t151.5 -206.5l-113 -105q-197 180 -284.5 427t-87.5 530z" />
<glyph unicode=")" horiz-adv-x="657" d="M55 -358q92 96 151.5 206.5t93.5 223t46 221t12 201.5q0 92 -12 199.5t-46 220t-93.5 223t-151.5 206.5l113 107q197 -180 285 -427t88 -529q0 -283 -88 -530t-285 -427z" />
<glyph unicode="*" horiz-adv-x="720" d="M109 1065l149 84l-149 84l55 92l143 -88v170h107v-170l143 88l55 -92l-151 -84l151 -84l-55 -92l-143 88v-170h-107v170l-143 -88z" />
<glyph unicode="+" d="M63 459v151h330v332h154v-332h332v-151h-332v-332h-154v332h-330z" />
<glyph unicode="," horiz-adv-x="425" d="M47 -190l78 389h192l-106 -389h-164z" />
<glyph unicode="-" horiz-adv-x="659" d="M70 459v172h522v-172h-522z" />
<glyph unicode="." horiz-adv-x="425" d="M92 104q0 51 34 87t87 36t88 -36.5t35 -86.5q0 -51 -35 -84.5t-88 -33.5t-87 33.5t-34 84.5z" />
<glyph unicode="/" horiz-adv-x="792" d="M25 -80l565 1487h178l-563 -1487h-180z" />
<glyph unicode="0" horiz-adv-x="942" d="M61 614q0 184 21.5 311.5t71 207t130.5 115.5t199 36q113 0 189 -32.5t122 -108.5t66.5 -198t20.5 -300q0 -180 -21.5 -306t-71 -205t-129 -114.5t-198.5 -35.5q-113 0 -188.5 32.5t-123 106.5t-68 194.5t-20.5 296.5zM250 610q0 -127 8 -215t31.5 -143t65.5 -80t110 -25 q66 0 108.5 26t68.5 85t36 156.5t10 242.5q0 125 -8 213t-31.5 143.5t-65.5 80t-110 24.5t-111 -24.5t-67.5 -83t-34.5 -156.5t-10 -244z" />
<glyph unicode="1" horiz-adv-x="796" d="M59 1094q18 16 61.5 46.5t106 59.5t141 51.5t164.5 24.5v-1112h238v-164h-657v164h237v903q-31 -10 -62.5 -25.5t-59 -32t-48 -30.5t-33.5 -23z" />
<glyph unicode="2" horiz-adv-x="942" d="M68 0v156l331 340q74 74 123 135t79 115.5t43 103.5t13 100q0 84 -47 126t-127 42q-59 0 -99 -18.5t-65.5 -44t-40 -52t-20.5 -40.5l-168 65q14 45 45 91t79 83t117.5 59.5t166.5 22.5q182 0 271 -94t89 -246q0 -66 -16.5 -125t-53 -122.5t-97 -135.5t-146.5 -160 l-236 -239h568v-162h-809z" />
<glyph unicode="3" horiz-adv-x="942" d="M59 205l164 88q8 -20 22.5 -45t40 -47.5t64.5 -38t96 -15.5q100 0 159 49.5t61 153.5q0 117 -73 181.5t-243 64.5h-55v154h55q80 0 134.5 15t88 43t48 65.5t14.5 80.5q0 74 -43 119t-141 45q-92 0 -143.5 -37t-80.5 -94l-149 92q41 90 139 147.5t240 57.5 q72 0 138.5 -17.5t117.5 -55t81.5 -95t30.5 -137.5q0 -66 -20.5 -116t-52 -87t-73.5 -61.5t-85 -36.5q115 -31 187.5 -110t72.5 -218q0 -94 -33 -162.5t-89 -113.5t-132 -67.5t-162 -22.5q-90 0 -155.5 21.5t-110.5 54t-72.5 71.5t-40.5 74z" />
<glyph unicode="4" horiz-adv-x="942" d="M35 334v137l457 795h268v-774h155v-158h-155v-334h-187v334h-538zM227 492h346v602z" />
<glyph unicode="5" horiz-adv-x="942" d="M51 170l146 111q8 -16 25.5 -39t47 -44.5t70.5 -36t98 -14.5q117 0 172.5 72t55.5 197q0 115 -50.5 176t-173.5 61q-41 0 -84 -12t-77 -35h-144l56 660h632v-164h-483l-27 -332q20 10 64.5 21.5t101.5 11.5q106 0 179 -32t116 -84t61.5 -120.5t18.5 -142.5 q0 -92 -23.5 -172t-73.5 -139.5t-129 -94t-192 -34.5q-84 0 -147.5 16t-109.5 43t-77.5 60.5t-52.5 66.5z" />
<glyph unicode="6" horiz-adv-x="942" d="M82 567q0 158 23.5 290t77 227.5t138.5 147.5t207 52q133 0 210 -55t108 -133l-154 -82q-18 39 -57 71.5t-117 32.5q-117 0 -177 -92t-71 -297q29 16 85.5 33.5t142.5 17.5q182 0 280.5 -97t98.5 -292q0 -186 -97.5 -296.5t-302.5 -110.5q-100 0 -175 30.5t-124 99 t-72.5 180.5t-23.5 273zM264 522q0 -193 50.5 -284t174.5 -91q96 0 150.5 55.5t54.5 178.5q0 127 -59.5 181t-175.5 54q-66 0 -116 -13t-79 -34v-47z" />
<glyph unicode="7" horiz-adv-x="942" d="M84 1102v164h774v-133q-92 -184 -163.5 -355.5t-124 -318t-88.5 -263t-56 -196.5h-201q18 82 61.5 207t103 272.5t132 308t152.5 314.5h-590z" />
<glyph unicode="8" horiz-adv-x="942" d="M61 322q0 113 62.5 206t183.5 148q-88 45 -144.5 118.5t-56.5 178.5q0 59 22 115.5t66 99.5t112.5 69.5t162.5 26.5q92 0 160.5 -26.5t113.5 -69.5t66.5 -99.5t21.5 -117.5q0 -102 -55 -177t-153 -120q137 -63 197.5 -142t60.5 -194q0 -160 -105.5 -257t-304.5 -97 q-102 0 -179 25.5t-128 71.5t-77 107.5t-26 133.5zM252 344q0 -90 53 -145.5t168 -55.5q98 0 156.5 47.5t58.5 149.5q0 86 -52 146.5t-175 109.5q-121 -49 -165 -113.5t-44 -138.5zM291 967q0 -84 53 -137t133 -80q90 31 132 84t42 122q0 74 -43 121t-135 47t-137 -43 t-45 -114z" />
<glyph unicode="9" horiz-adv-x="942" d="M63 879q0 184 95.5 294.5t302.5 110.5q102 0 177 -31.5t124 -102.5t72.5 -184.5t23.5 -275.5t-24.5 -293t-76.5 -223t-135 -141t-202 -49q-145 0 -227 63.5t-117 157.5l157 88q10 -27 24.5 -53.5t37 -47t54.5 -33t77 -12.5q123 0 180.5 99.5t63.5 285.5 q-25 -14 -82.5 -32.5t-147.5 -18.5q-180 0 -278.5 99.5t-98.5 298.5zM246 883q0 -127 59.5 -182.5t175.5 -55.5q68 0 117 15.5t78 35.5v47q0 193 -49 284t-174 91q-96 0 -151.5 -55t-55.5 -180z" />
<glyph unicode=":" horiz-adv-x="425" d="M92 104q0 51 34 87t87 36t88 -36.5t35 -86.5q0 -51 -35 -84.5t-88 -33.5t-87 33.5t-34 84.5zM92 770q0 49 34 85t87 36t88 -36t35 -85q0 -51 -35 -85t-88 -34t-87 34t-34 85z" />
<glyph unicode=";" horiz-adv-x="425" d="M47 -190l78 389h192l-106 -389h-164zM94 770q0 49 34 85t85 36q53 0 88 -36t35 -85q0 -51 -35 -85t-88 -34q-51 0 -85 34t-34 85z" />
<glyph unicode="&#x3c;" d="M84 459v151l772 334v-153l-604 -256l604 -254v-156z" />
<glyph unicode="=" d="M63 270v152h816v-152h-816zM63 647v152h816v-152h-816z" />
<glyph unicode="&#x3e;" d="M84 125v156l604 254l-604 256v153l772 -334v-151z" />
<glyph unicode="?" horiz-adv-x="774" d="M35 1167q14 31 41.5 67t70.5 64.5t102.5 48t137.5 19.5q160 0 257 -84t97 -244q0 -76 -21.5 -136t-55 -112.5t-74.5 -99.5t-78 -97t-64.5 -108.5t-35.5 -130.5h-168q2 86 25.5 152.5t56 120t70.5 97.5t71 89t54.5 94t21.5 113q0 78 -40 126t-128 48q-43 0 -75 -12.5 t-53.5 -29.5t-35.5 -37.5t-25 -39.5zM205 104q0 51 34.5 87t86.5 36q53 0 88 -37.5t35 -85.5q0 -49 -35 -83.5t-88 -34.5q-51 0 -86 33.5t-35 84.5z" />
<glyph unicode="@" horiz-adv-x="1669" d="M98 477q0 195 46 350.5t140.5 264t240 167t345.5 58.5q180 0 312.5 -47t219.5 -135t130 -214t43 -282q0 -311 -165 -483t-505 -172q-211 0 -308 67.5t-97 196.5q0 80 35.5 138t102.5 98t160 62.5t208 33.5v55q0 37 -4.5 66.5t-18.5 52t-42 35t-75 12.5q-66 0 -116 -24.5 t-84 -84.5l-138 80q35 68 121 122t228 54q82 0 139 -20.5t93 -55t52.5 -84t16.5 -106.5v-514q219 82 219 457q0 268 -124 401t-394 133q-166 0 -281 -48t-187.5 -136t-104.5 -213t-32 -279q0 -346 152 -511t457 -165q96 0 177 14.5t128 37.5v-170q-25 -12 -60.5 -21.5 t-76.5 -15.5t-85 -8t-85 -2q-391 0 -587 215t-196 620zM676 258q0 -61 52 -93t173 -32q29 0 54.5 1t50.5 5v297q-100 -6 -165 -24.5t-102 -43t-50 -53t-13 -57.5z" />
<glyph unicode="A" horiz-adv-x="1138" d="M51 0l314 1309q23 20 73.5 36.5t124.5 16.5q70 0 115 -18.5t76.5 -61.5t54 -113.5t47.5 -173.5l231 -995h-198l-101 434h-442l-102 -434h-193zM385 602h365l-60 270q-25 106 -40 169t-29.5 95.5t-28.5 42t-35 9.5q-27 0 -39 -8z" />
<glyph unicode="B" horiz-adv-x="1038" d="M143 51v1249q53 31 143.5 48.5t186.5 17.5q119 0 203 -27.5t136 -74.5t76.5 -113t24.5 -141q0 -70 -18 -121t-48 -87t-66 -58.5t-70 -34.5q41 -10 87 -33t84 -60.5t62.5 -97t24.5 -143.5q0 -115 -42 -190.5t-109.5 -121t-153.5 -63.5t-175 -18q-129 0 -219 23.5 t-127 45.5zM340 172q14 -10 55 -15t94 -5q137 0 207 54t70 175q0 113 -71.5 173t-243.5 60h-111v-442zM340 778h106q154 0 211.5 58.5t57.5 158.5q0 43 -10.5 81t-38 64.5t-76.5 42t-125 15.5q-31 0 -68 -3t-57 -11v-406z" />
<glyph unicode="C" horiz-adv-x="1064" d="M102 659q0 145 19.5 273.5t75 224.5t155 152.5t258.5 56.5q94 0 163 -21.5t116 -55.5t76.5 -76t48.5 -85l-168 -88q-27 63 -84 108.5t-158 45.5q-88 0 -146.5 -33t-92 -98.5t-47 -161.5t-13.5 -223q0 -129 15.5 -227.5t53.5 -164t101.5 -98t161.5 -32.5q111 0 178.5 36.5 t104.5 71.5l98 -151q-18 -18 -50 -41t-79 -43.5t-110.5 -33.5t-149.5 -13q-162 0 -264.5 52t-161 143t-80 215t-21.5 267z" />
<glyph unicode="D" horiz-adv-x="1202" d="M143 53v1239q27 14 70 27.5t97.5 24t115.5 16.5t123 6q156 0 261 -42t169.5 -125t92.5 -207t28 -285q0 -219 -36 -359.5t-107.5 -222.5t-179 -112.5t-251.5 -30.5q-80 0 -146.5 8t-116.5 20.5t-80.5 24.5t-39.5 18zM340 188q29 -16 81 -25t126 -9q90 0 156.5 23.5 t109.5 85t63.5 169t20.5 277.5q0 119 -15.5 210t-53 152.5t-105.5 92t-172 30.5q-59 0 -114.5 -8t-96.5 -21v-977z" />
<glyph unicode="E" horiz-adv-x="987" d="M137 0v1348h740v-170h-543v-381h463v-172h-463v-455h565v-170h-762z" />
<glyph unicode="F" horiz-adv-x="942" d="M143 0v1348h748v-170h-551v-412h440v-170h-440v-596h-197z" />
<glyph unicode="G" horiz-adv-x="1136" d="M102 659q0 147 20.5 275.5t78 224.5t159 151.5t265.5 55.5q96 0 165.5 -22.5t118.5 -58.5t80 -80t47 -87q-41 -20 -84 -39.5t-84 -42.5q-31 66 -90 112t-168 46q-90 0 -149.5 -33t-94 -98.5t-49 -164.5t-14.5 -234q0 -127 14.5 -222.5t52.5 -160t103.5 -97t165.5 -32.5 q63 0 112.5 10t77.5 24v357h-225v168h420v-621q-49 -39 -147.5 -73.5t-245.5 -34.5q-162 0 -265.5 50t-162 140t-80 215t-21.5 272z" />
<glyph unicode="H" horiz-adv-x="1245" d="M143 0v1348h197v-547h567v547h195v-1348h-195v627h-567v-627h-197z" />
<glyph unicode="I" horiz-adv-x="503" d="M156 0v1348h194v-1348h-194z" />
<glyph unicode="J" horiz-adv-x="757" d="M29 145l161 99q6 -12 15.5 -27.5t24 -29t36 -23.5t49.5 -10q102 0 103 118v1076h196v-1069q0 -90 -24.5 -147.5t-65.5 -90.5t-95 -46t-114 -13q-66 0 -113.5 15t-81.5 39.5t-56.5 53.5t-34.5 55z" />
<glyph unicode="K" horiz-adv-x="1077" d="M143 0v1348h195v-621q61 80 137 177t145.5 187.5t123 161t69.5 95.5h238q-104 -141 -210 -278.5t-212 -278.5l428 -791h-217l-338 623l-164 -215v-408h-195z" />
<glyph unicode="L" horiz-adv-x="915" d="M133 0v1348h197v-1178h544v-170h-741z" />
<glyph unicode="M" horiz-adv-x="1521" d="M143 0v1348h283l188 -576q76 -231 113 -374.5t41 -159.5q0 4 9 44t26.5 108.5t45.5 165.5t66 214l193 578h268v-1348h-184v524q0 268 4 417t6 157q-2 -4 -13 -43t-31.5 -105.5t-49.5 -158t-66 -199.5l-198 -592h-164l-201 594q-37 104 -64.5 193.5t-48 155t-31.5 106.5 t-13 51q0 -10 5 -158.5t5 -417.5v-524h-189z" />
<glyph unicode="N" horiz-adv-x="1282" d="M143 0v1348h242l317 -580q135 -248 195.5 -381t63.5 -137q0 4 -5.5 144.5t-5.5 426.5v527h189v-1348h-226l-335 606q-133 240 -193.5 374t-62.5 138q0 -6 5 -146.5t5 -412.5v-559h-189z" />
<glyph unicode="O" horiz-adv-x="1259" d="M102 668q0 160 24 288.5t84 220t163.5 140.5t263.5 49q154 0 254 -46t159.5 -134t83 -216t23.5 -292q0 -162 -23.5 -291t-84 -219t-163.5 -138t-263 -48q-154 0 -254.5 46t-159.5 133t-83 215t-24 292zM305 670q0 -139 15.5 -237.5t52.5 -160t98.5 -90t155.5 -28.5 q98 0 162.5 30.5t101.5 95t51 165t14 237.5q0 129 -13 225.5t-49 159.5t-99.5 95t-161.5 32t-161.5 -32t-100.5 -96.5t-51.5 -163.5t-14.5 -232z" />
<glyph unicode="P" horiz-adv-x="1036" d="M143 0v1296q59 33 155.5 51.5t199.5 18.5q125 0 213 -30.5t144 -89t83 -144.5t27 -195q0 -139 -36 -233t-97.5 -151.5t-144.5 -82t-177 -24.5q-53 0 -99 4t-71 12v-432h-197zM340 610q16 -12 66.5 -18t93.5 -6q63 0 113.5 15t85 50t52 94.5t17.5 149.5q0 74 -12.5 129 t-43 93t-84 57.5t-132.5 19.5q-59 0 -101.5 -7t-54.5 -13v-564z" />
<glyph unicode="Q" horiz-adv-x="1259" d="M102 668q0 160 24 288.5t84 220t163.5 140.5t263.5 49q154 0 254 -46t159.5 -134t83 -216t23.5 -292q0 -133 -16.5 -244.5t-55 -197.5t-104.5 -144.5t-164 -87.5q53 -57 123 -75.5t168 -18.5q29 0 49.5 6t32.5 12l41 -164q-16 -10 -47 -16t-72 -6q-90 0 -161.5 16.5 t-133 48t-115 76.5t-104.5 101q-145 2 -240.5 49t-153 135t-80 214t-22.5 286zM305 670q0 -139 15.5 -237.5t52.5 -160t98.5 -90t155.5 -28.5q98 0 162.5 30.5t101.5 95t51 165t14 237.5q0 129 -13 225.5t-49 159.5t-99.5 95t-161.5 32t-161.5 -32t-100.5 -96.5 t-51.5 -163.5t-14.5 -232z" />
<glyph unicode="R" horiz-adv-x="1060" d="M143 0v1296q59 33 153.5 51.5t209.5 18.5q231 0 341.5 -109.5t110.5 -302.5q0 -164 -68.5 -260t-180.5 -137l301 -557h-217l-275 516q-10 -2 -25.5 -2h-21.5q-39 0 -76 2t-55 6v-522h-197zM340 692q23 -4 56.5 -6t68.5 -2q141 0 218 56.5t77 199.5q0 123 -56.5 188.5 t-205.5 65.5q-51 0 -98.5 -5t-59.5 -13v-484z" />
<glyph unicode="S" horiz-adv-x="956" d="M43 211l154 113q14 -27 35.5 -56.5t55.5 -55.5t79 -42t106 -16q115 0 164 57t49 141q0 76 -44 124t-108.5 85t-141.5 70t-141.5 81t-108.5 117.5t-44 180.5q0 166 107.5 261t288.5 95q88 0 152.5 -19.5t110.5 -50t73.5 -67.5t43.5 -70l-155 -100q-12 23 -30.5 47 t-47.5 43.5t-67.5 32t-90.5 12.5q-96 0 -145 -46t-49 -122q0 -72 44 -118t109.5 -83t143.5 -70.5t143.5 -83.5t109.5 -124t44 -187q0 -100 -35 -171.5t-92.5 -117.5t-132 -67.5t-154.5 -21.5q-86 0 -155.5 18t-123 50t-90.5 74t-57 87z" />
<glyph unicode="T" horiz-adv-x="946" d="M37 1178v170h872v-170h-338v-1178h-192v1178h-342z" />
<glyph unicode="U" horiz-adv-x="1198" d="M143 455v893h197v-850q0 -100 14.5 -166t50 -106t94 -56t148.5 -16q53 0 114.5 10t96.5 29v1155h195v-1268q-59 -39 -170 -68.5t-265 -29.5q-141 0 -233 29.5t-145.5 88t-75 147.5t-21.5 208z" />
<glyph unicode="V" horiz-adv-x="1148" d="M45 1348h215l182 -662q29 -104 53.5 -197.5t43 -165t30 -115.5t13.5 -52q0 4 10 47t28.5 113.5t43 166t55.5 203.5l182 662h203l-399 -1348h-261z" />
<glyph unicode="W" horiz-adv-x="1820" d="M66 1348h210l148 -656q25 -109 43 -203t32.5 -165.5t22.5 -116.5t10 -53q0 6 8.5 50t24 114.5t36 165t46.5 202.5l162 662h217l160 -660q27 -106 47 -199.5t35.5 -164t25 -114.5t11.5 -56q0 10 8 55t21.5 115.5t32.5 165t44 202.5l148 656h198l-327 -1348h-263l-120 479 q-72 287 -102 440.5t-34 182.5q-4 -29 -34.5 -180.5t-102.5 -436.5l-121 -485h-260z" />
<glyph unicode="X" horiz-adv-x="1120" d="M27 0l405 698l-371 650h220l284 -508l275 508h215l-371 -646l410 -702h-224l-313 557l-315 -557h-215z" />
<glyph unicode="Y" horiz-adv-x="1030" d="M20 1348h218l282 -684l283 684h207l-398 -904v-444h-194v444z" />
<glyph unicode="Z" horiz-adv-x="1038" d="M78 0v150l661 1028h-643v170h875v-150l-664 -1028h664v-170h-893z" />
<glyph unicode="[" horiz-adv-x="565" d="M143 -414v1811h359v-123h-189v-1565h189v-123h-359z" />
<glyph unicode="\" horiz-adv-x="792" d="M25 1407h180l563 -1487h-178z" />
<glyph unicode="]" horiz-adv-x="565" d="M63 -289h189v1561h-189v125h359v-1811h-359v125z" />
<glyph unicode="^" d="M78 625l342 723h98l346 -723h-166l-227 499l-229 -499h-164z" />
<glyph unicode="_" horiz-adv-x="997" d="M-10 -133h1018v-160h-1018v160z" />
<glyph unicode="`" horiz-adv-x="600" d="M104 1360h236l156 -273h-168z" />
<glyph unicode="a" horiz-adv-x="876" d="M76 250q0 152 124 238.5t388 109.5v78q0 82 -32 118.5t-107 36.5q-78 0 -126.5 -33.5t-72.5 -80.5l-146 86q12 27 38 58.5t69 59t104.5 47t143.5 19.5q166 0 238.5 -76.5t72.5 -205.5v-629q-59 -47 -152.5 -70.5t-197.5 -23.5q-74 0 -137.5 14t-109.5 47t-71.5 83 t-25.5 124zM262 260q0 -59 43 -93t131 -34q47 0 85 7t67 24v285q-68 -6 -127.5 -18.5t-103.5 -35t-69.5 -55.5t-25.5 -80z" />
<glyph unicode="b" horiz-adv-x="933" d="M119 68v1296h182v-410q33 16 80 24.5t98 8.5q104 0 177 -32.5t118 -95t65.5 -152t20.5 -201.5q0 -158 -34.5 -258.5t-93 -158.5t-135.5 -79.5t-163 -21.5q-127 0 -208 27.5t-107 52.5zM301 172q12 -12 47 -21.5t76 -9.5q57 0 103 16.5t79 57.5t50.5 110.5t17.5 176.5 q0 156 -49.5 242.5t-182.5 86.5q-88 0 -141 -32v-627z" />
<glyph unicode="c" horiz-adv-x="808" d="M70 473q0 117 21.5 212t69.5 162.5t122.5 103.5t179.5 36q123 0 198.5 -49t110.5 -139l-156 -76q-20 43 -54 74.5t-103 31.5q-109 0 -156 -88t-47 -258q0 -178 53 -261t172 -83q63 0 110.5 22.5t88.5 61.5l90 -133q-31 -37 -104.5 -72.5t-202.5 -35.5q-209 0 -301 125.5 t-92 365.5z" />
<glyph unicode="d" horiz-adv-x="933" d="M74 473q0 248 98 381t317 133q39 0 80 -5t64 -15v397h182v-1280q-12 -10 -41 -26.5t-72 -33t-102 -28.5t-135 -12q-84 0 -155.5 22.5t-124 77.5t-82 149.5t-29.5 239.5zM260 481q0 -102 15.5 -167.5t44 -104.5t70.5 -54.5t95 -15.5q45 0 87 10.5t61 28.5v629 q-41 24 -119 24h-6q-139 0 -193.5 -86t-54.5 -264z" />
<glyph unicode="e" horiz-adv-x="884" d="M74 457q0 106 17.5 202.5t61.5 169t120.5 115.5t193.5 43q96 0 161.5 -29.5t105.5 -80t57.5 -117t17.5 -142.5q0 -57 -5 -111t-11 -85h-533q2 -84 17.5 -138.5t43 -87t68.5 -45t94 -12.5q78 0 136.5 28t95.5 64l92 -137q-47 -47 -131 -79.5t-203 -32.5 q-109 0 -185.5 31.5t-123.5 93t-68.5 149.5t-21.5 201zM260 563h365q2 14 3 34.5t1 37.5q0 88 -36 143.5t-132 55.5q-104 0 -149.5 -68t-51.5 -203z" />
<glyph unicode="f" horiz-adv-x="636" d="M37 821v146h145v63q0 180 78 267t225 87q53 0 93 -10t69 -25.5t45.5 -30.5t24.5 -28l-96 -114q-10 14 -42 33.5t-85 19.5q-63 0 -96 -41t-33 -148v-73h249v-146h-249v-821h-183v821h-145z" />
<glyph unicode="g" horiz-adv-x="915" d="M74 494q0 117 23.5 209t74.5 154.5t133 96t199 33.5q84 0 166 -15.5t131 -43.5v-951q0 -106 -32 -172.5t-83 -103.5t-112.5 -49t-122.5 -12q-133 0 -212 48t-106 103l127 105q23 -39 71 -71t120 -32q92 0 131 46t39 145v73q-25 -12 -66 -18t-90 -6q-213 0 -302 118.5 t-89 342.5zM260 500q0 -164 49 -237t172 -73q43 0 83 9.5t57 19.5v592q-16 8 -47 14t-74 6q-135 0 -187.5 -80.5t-52.5 -250.5z" />
<glyph unicode="h" horiz-adv-x="948" d="M119 0v1364h182v-403q33 10 78 18t106 8q111 0 180.5 -29.5t107.5 -86t52.5 -136.5t14.5 -178v-557h-183v551q0 76 -8 130t-30.5 87t-63.5 48t-106 15q-41 0 -83 -6t-65 -18v-807h-182z" />
<glyph unicode="i" horiz-adv-x="438" d="M100 1229q0 47 34 80.5t83 33.5q51 0 85 -33.5t34 -80.5q0 -49 -34 -82t-85 -33q-49 0 -83 33t-34 82zM127 0v967h182v-967h-182z" />
<glyph unicode="j" horiz-adv-x="452" d="M-166 -254l107 113q10 -12 37.5 -39t80.5 -27q47 0 65.5 27.5t18.5 81.5v1065h183v-1057q0 -78 -20.5 -130t-56.5 -84t-82 -45t-97 -13q-57 0 -98.5 12t-70 28.5t-45 36t-22.5 31.5zM117 1229q0 47 34.5 80.5t81.5 33.5q51 0 85 -33.5t34 -80.5q0 -49 -33.5 -82 t-85.5 -33q-47 0 -81.5 33t-34.5 82z" />
<glyph unicode="k" horiz-adv-x="886" d="M119 0v1364h182v-793q8 10 34.5 43t62.5 75t76 89t74 88t57.5 69t27.5 32h237l-331 -392l323 -575h-205l-241 426l-115 -137v-289h-182z" />
<glyph unicode="l" horiz-adv-x="483" d="M119 242v1122h182v-1088q0 -61 16.5 -95t85.5 -34h16.5t22.5 3l9 -154q-10 -2 -33 -4t-58 -2q-121 0 -181 54t-60 198z" />
<glyph unicode="m" horiz-adv-x="1368" d="M119 0v922q47 16 112.5 28.5t141.5 20.5t154.5 12t152.5 4q176 0 287.5 -17.5t176 -63.5t89 -123.5t24.5 -198.5v-584h-180v559q0 82 -10 134t-42 82t-90 41t-155 13v-829h-182v829q-84 -2 -170 -10t-127 -18v-801h-182z" />
<glyph unicode="n" horiz-adv-x="948" d="M119 0v918q57 29 150 49t196 20q115 0 187.5 -27.5t114.5 -80t57.5 -128t15.5 -169.5v-582h-183v530q0 72 -5 128.5t-25.5 94.5t-61.5 57t-110 19q-45 0 -88 -6t-66 -16v-807h-182z" />
<glyph unicode="o" horiz-adv-x="946" d="M74 469q0 123 20.5 219t68.5 163t126 101.5t194 34.5q113 0 187.5 -31.5t120 -95t64.5 -156t19 -210.5q0 -121 -19 -215.5t-66.5 -161t-127 -101t-198.5 -34.5q-111 0 -185.5 30.5t-119.5 92t-64.5 152.5t-19.5 212zM260 471q0 -176 42 -255t165 -79t172 82t49 285 q0 88 -9 149.5t-32.5 101.5t-63.5 58t-102 18q-63 0 -105 -19t-67.5 -62t-37 -112t-11.5 -167z" />
<glyph unicode="p" horiz-adv-x="933" d="M119 -379v1294q63 37 153 54.5t170 17.5q121 0 201 -32.5t128 -94t68.5 -149.5t20.5 -197q0 -152 -30.5 -252t-86 -160.5t-133.5 -85t-172 -24.5q-41 0 -75.5 4t-61.5 10v-385h-182zM301 168q37 -20 127 -21q61 0 107.5 18.5t77 61.5t46 114t15.5 175q0 74 -10.5 132.5 t-37 99t-73.5 62t-121 21.5q-47 0 -83 -7t-48 -15v-641z" />
<glyph unicode="q" horiz-adv-x="933" d="M74 461q0 123 22.5 220t74.5 164.5t137 104.5t210 37q27 0 66 -2t81 -8t81.5 -17.5t68.5 -29.5v-1309h-182v381q-39 -10 -81 -14t-75 -4q-115 0 -191.5 31.5t-123.5 93t-67.5 150.5t-20.5 202zM260 469q0 -176 50 -253t179 -77q41 0 82 8.5t62 24.5v641q-35 18 -111 18 t-126 -22.5t-80.5 -67.5t-43 -112.5t-12.5 -159.5z" />
<glyph unicode="r" horiz-adv-x="663" d="M119 0v913q49 31 130 52.5t157 21.5q86 0 150.5 -30.5t98.5 -102.5l-145 -76q-16 23 -44 38t-69 15q-29 0 -54.5 -6t-41.5 -16v-809h-182z" />
<glyph unicode="s" horiz-adv-x="772" d="M41 158l133 98q27 -49 76 -85t131 -36q68 0 107.5 29t39.5 92q0 49 -33.5 80t-83 53.5t-108.5 44t-108.5 55t-83 86t-33.5 136.5q0 61 22.5 112t64.5 87t101.5 56.5t132.5 20.5q131 0 206 -49t104 -115l-140 -86q-49 96 -176 97q-66 0 -101.5 -32t-35.5 -83q0 -47 34 -77 t84 -52.5t109.5 -45t109.5 -55t84 -85t34 -134.5q0 -78 -28 -132t-74 -89t-105.5 -51t-124.5 -16q-74 0 -131.5 16t-98 40.5t-67.5 56.5t-41 63z" />
<glyph unicode="t" horiz-adv-x="663" d="M37 821v146h141v252h182v-252h244v-146h-244v-530q0 -72 19.5 -110t77.5 -38q72 0 116 50l80 -132q-35 -35 -91 -56t-136 -21q-127 0 -187.5 63.5t-60.5 200.5v573h-141z" />
<glyph unicode="u" d="M109 416v551h182v-518q0 -80 6 -137.5t26.5 -95.5t59.5 -56.5t104 -18.5q41 0 85 10.5t67 26.5v789h182v-889q-57 -41 -144 -68.5t-204 -27.5q-115 0 -185.5 28.5t-110.5 84t-54 136t-14 185.5z" />
<glyph unicode="v" horiz-adv-x="915" d="M35 967h203l110 -394q20 -78 41 -153.5t37 -138t26.5 -102.5t10.5 -42q0 2 10 42t26.5 101.5t37 137.5t43.5 153l112 396h191l-305 -967h-240z" />
<glyph unicode="w" horiz-adv-x="1363" d="M55 967h201l86 -396q14 -74 27.5 -143.5t23.5 -124.5t16.5 -92t8.5 -43q0 6 7 42t18.5 91t27.5 125t35 143l98 398h174l96 -398q18 -72 33 -140.5t26 -123.5t18 -92t10 -45q0 8 6 45t15 92t23.5 124t30.5 142l88 396h187l-238 -967h-223l-66 266q-47 193 -73.5 313.5 t-28.5 139.5q-4 -18 -31.5 -137t-75.5 -312l-67 -270h-219z" />
<glyph unicode="x" horiz-adv-x="872" d="M25 0l297 500l-277 467h209l190 -340l187 340h203l-283 -467l297 -500h-209l-211 371l-203 -371h-200z" />
<glyph unicode="y" horiz-adv-x="913" d="M37 967h196l146 -527q23 -88 44 -141t38 -78l229 746h191l-349 -1065q-29 -84 -61.5 -136.5t-69 -80t-78.5 -36.5t-87 -9q-66 0 -114 19t-71 42l84 139q16 -14 44 -27.5t63 -13.5q23 0 42 7.5t35.5 25.5t32 51t31.5 86l14 49q-55 39 -96 117t-82 217z" />
<glyph unicode="z" horiz-adv-x="815" d="M61 0v131l465 686h-448v150h672v-131l-465 -686h469v-150h-693z" />
<glyph unicode="{" horiz-adv-x="653" d="M76 412v116q55 12 86 37t47 58.5t20 76.5t4 97v190q0 100 15.5 177t56.5 127t112.5 76t186.5 26v-131q-70 0 -109.5 -18.5t-60 -55.5t-27 -90.5t-6.5 -122.5v-154q0 -61 -4 -115.5t-19.5 -99.5t-47 -79.5t-86.5 -55.5q55 -23 86.5 -57.5t47 -79.5t19.5 -99.5t4 -115.5 v-154q0 -68 6.5 -121t27 -90t60.5 -55t109 -18v-132q-115 0 -186.5 26t-112.5 76t-56.5 126t-15.5 178v190q0 51 -4 94.5t-20 77t-47 58t-86 37.5z" />
<glyph unicode="|" horiz-adv-x="702" d="M264 -365v1932h174v-1932h-174z" />
<glyph unicode="}" horiz-adv-x="653" d="M47 -319q70 0 110 18t61.5 55t27.5 90.5t6 120.5v154q0 61 3 115.5t18.5 99.5t47 80t87.5 57q-55 20 -87 55t-47.5 80t-18.5 99.5t-3 115.5v154q0 70 -6 123t-27.5 90t-61.5 55.5t-110 18.5v131q115 0 186.5 -26t112.5 -76t56.5 -127t15.5 -177v-190q0 -53 4 -96.5 t20.5 -77t48 -58t87.5 -37.5v-116q-55 -12 -87 -37t-48.5 -58.5t-20.5 -76.5t-4 -95v-190q0 -102 -15.5 -178t-56.5 -126t-112.5 -76t-186.5 -26v132z" />
<glyph unicode="~" horiz-adv-x="972" d="M63 715l132 84q6 -12 15 -29.5t23.5 -32t36 -25t54.5 -10.5q45 0 86 12.5t81.5 28t86 27.5t98.5 12q47 0 84 -14t64.5 -36.5t46 -51.5t30.5 -57l-123 -76q-20 39 -48 64.5t-83 25.5q-39 0 -79 -12.5t-83 -27.5t-92 -27.5t-104 -12.5q-70 0 -131.5 36t-94.5 122z" />
<glyph unicode="&#xa1;" horiz-adv-x="507" d="M131 866q0 49 36 84t89 35q49 0 84 -34t35 -85t-35 -87t-84 -36q-53 0 -89 37t-36 86zM143 -276q0 37 2 97t6.5 162.5t10.5 256t14 378.5h154q6 -225 12 -378.5t10 -256t6 -163t2 -96.5q0 -57 -29.5 -88t-76.5 -31q-49 0 -80 30.5t-31 88.5z" />
<glyph unicode="&#xa2;" d="M115 473q0 215 77.5 348t258.5 160v164h129v-162q106 -10 172.5 -56t101.5 -128l-154 -78q-16 35 -43.5 63.5t-76.5 38.5v-684q59 4 101 26.5t81 57.5l94 -131q-31 -35 -98.5 -67.5t-177.5 -40.5v-172h-129v176q-180 20 -258 144t-78 341zM301 483q0 -147 36 -226 t114 -105v667q-80 -27 -115 -109.5t-35 -226.5z" />
<glyph unicode="&#xa3;" d="M66 586v135h118v156q0 219 93.5 313t275.5 94q104 0 188 -41t131 -133l-147 -92q-20 37 -61 68.5t-117 31.5q-43 0 -76 -9t-56.5 -37t-35.5 -76t-12 -128v-147h292v-135h-292v-312q0 -68 -25 -102l2 -2q27 6 51.5 10t59.5 4q49 0 84.5 -5t63.5 -11t52.5 -11t53.5 -5 q35 0 61.5 13t46.5 46l101 -121q-16 -39 -58.5 -70.5t-132.5 -31.5q-78 0 -152.5 17.5t-164.5 17.5q-47 0 -98.5 -6.5t-96.5 -14.5q-53 -8 -102 -18l-45 141q16 6 36.5 16.5t38 27.5t29.5 42t12 59v316h-118z" />
<glyph unicode="&#xa5;" d="M25 1266h204l246 -498l240 498h198q-72 -139 -141.5 -277.5t-140.5 -277.5h231v-138h-299v-133h299v-137h-299v-303h-188v303h-299v137h299v133h-299v138h229z" />
<glyph unicode="&#xa7;" horiz-adv-x="1013" d="M96 520q0 115 55.5 189.5t127.5 115.5q-47 41 -75 94.5t-28 135.5q0 147 98.5 229t266.5 82q80 0 139 -17.5t101 -45t70 -61.5t42 -64l-150 -93q-12 20 -29.5 42t-42 38.5t-59 27.5t-82.5 11q-86 0 -125.5 -39t-39.5 -104q0 -59 40.5 -97t102 -69t134.5 -59.5 t134.5 -72.5t102.5 -109.5t41 -166.5q0 -115 -56.5 -189.5t-126.5 -115.5q45 -41 74 -95t29 -134q0 -147 -99.5 -229t-267.5 -82q-80 0 -138.5 17t-101.5 45t-69.5 61.5t-40.5 64.5l149 92q12 -20 29.5 -41.5t42.5 -38t59.5 -28t81.5 -11.5q86 0 126 39t40 105q0 59 -41 97 t-102.5 68.5t-134 59.5t-134 73t-102.5 109.5t-41 165.5zM287 520q0 -49 24.5 -84t64.5 -61.5t91 -47.5t104 -44q29 10 57.5 26.5t51 41t36 58t13.5 78.5q0 49 -24.5 84t-64.5 61.5t-91 47t-105 43.5q-31 -10 -58.5 -26.5t-50 -41t-35.5 -58.5t-13 -77z" />
<glyph unicode="&#xa8;" horiz-adv-x="786" d="M104 1212q0 45 31 78t80 33q53 0 84 -33t31 -78t-31 -76.5t-84 -31.5q-49 0 -80 31.5t-31 76.5zM459 1212q0 45 30.5 78t79.5 33q51 0 82 -33t31 -78t-30.5 -76.5t-82.5 -31.5q-49 0 -79.5 31.5t-30.5 76.5z" />
<glyph unicode="&#xa9;" horiz-adv-x="1472" d="M80 664q0 160 42 289.5t125 220t207 139.5t289 49q317 0 482.5 -178t165.5 -506q0 -162 -42 -291t-125 -219t-207 -138t-290 -48q-317 0 -482 178t-165 504zM223 670q0 -156 37 -263.5t104.5 -173t160.5 -95t206 -29.5q119 0 215 31.5t164 101t103.5 178t35.5 262.5 q0 145 -35.5 249.5t-101 172t-161 99.5t-214.5 32q-117 0 -212 -32t-162.5 -100.5t-103.5 -176t-36 -256.5zM383 668q0 199 88 315.5t274 116.5q113 0 181.5 -44t97.5 -122l-139 -64q-16 39 -48 65t-96 26q-193 0 -192 -285q0 -147 54 -216t159 -69q59 0 102 19.5t78 48.5 l84 -117q-31 -29 -98.5 -61.5t-179.5 -32.5q-186 0 -275.5 107.5t-89.5 312.5z" />
<glyph unicode="&#xab;" horiz-adv-x="1099" d="M96 440v129l463 381v-192l-311 -252l311 -252v-195zM539 440v129l465 381v-192l-312 -252l312 -252v-195z" />
<glyph unicode="&#xad;" horiz-adv-x="659" d="M70 459v172h522v-172h-522z" />
<glyph unicode="&#xae;" horiz-adv-x="1103" d="M84 866q0 113 29.5 206t89 157.5t147.5 100.5t207 36q227 0 345 -128t118 -361q0 -229 -118.5 -363.5t-356.5 -134.5q-227 0 -344 128t-117 359zM186 870q0 -109 27 -183.5t74 -122.5t113.5 -69.5t146.5 -21.5q172 0 270 97.5t98 310.5q0 203 -95 297t-267 94 q-170 0 -268.5 -96.5t-98.5 -305.5zM373 604v543q27 14 70.5 21.5t97.5 7.5q111 0 165 -49.5t54 -133.5q0 -121 -98 -168l124 -221h-127l-106 197q-59 0 -70 2v-199h-110zM483 893q16 -4 45 -4q47 0 81 20.5t34 77.5q0 94 -106 94q-16 0 -32 -1t-22 -3v-184z" />
<glyph unicode="&#xaf;" horiz-adv-x="747" d="M104 1128v156h539v-156h-539z" />
<glyph unicode="&#xb0;" horiz-adv-x="598" d="M61 1126q0 117 71 178.5t169 61.5q102 0 169 -61.5t67 -178.5q0 -113 -67 -176t-169 -63q-104 0 -172 63.5t-68 175.5zM186 1126q0 -53 26 -89t89 -36q59 0 86 36t27 89t-27 90t-86 37q-63 0 -89 -36.5t-26 -90.5z" />
<glyph unicode="&#xb1;" d="M63 41v152h816v-152h-816zM63 627v151h330v312h154v-312h332v-151h-332v-312h-154v312h-330z" />
<glyph unicode="&#xb4;" horiz-adv-x="600" d="M104 1087l156 273h236l-226 -273h-166z" />
<glyph unicode="&#xb6;" horiz-adv-x="1054" d="M63 891q0 109 27 193.5t85 143t151.5 89.5t226.5 31h397v-1713h-121v1600h-133v-1600h-121v799q-100 0 -192 21.5t-162.5 74t-114 140.5t-43.5 221z" />
<glyph unicode="&#xb7;" horiz-adv-x="425" d="M92 659q0 51 34 87t87 36t88 -36.5t35 -86.5q0 -51 -35 -84.5t-88 -33.5t-87 33.5t-34 84.5z" />
<glyph unicode="&#xb8;" horiz-adv-x="602" d="M104 -387l46 104q16 -16 44.5 -32.5t73.5 -16.5q41 0 61.5 18.5t20.5 49.5q0 49 -41 70.5t-133 21.5l60 180h122l-36 -104q27 -4 58.5 -14.5t57 -29t43 -50t17.5 -78.5q0 -82 -55.5 -129t-157.5 -47q-76 0 -123 22.5t-58 34.5z" />
<glyph unicode="&#xbb;" horiz-adv-x="1085" d="M88 57v197l311 252q-78 61 -155.5 123.5t-155.5 126.5v194l463 -383v-129zM532 57v197l310 252q-78 61 -155 123.5t-155 126.5v194l463 -383v-129z" />
<glyph unicode="&#xbc;" horiz-adv-x="1740" d="M102 1147q14 12 48 31.5t83.5 39t109.5 34t126 14.5v-650h166v-135h-492v135h166v480q-43 -16 -78.5 -34t-52.5 -26zM444 0l732 1266h165l-731 -1266h-166zM999 184v115l297 473h240v-459h100v-129h-100v-184h-164v184h-373zM1163 313h209v322z" />
<glyph unicode="&#xbd;" horiz-adv-x="1794" d="M102 1147q14 12 49 31.5t84.5 39t108.5 34t123 14.5v-652h166v-135h-490v135h166v480q-45 -16 -80.5 -33t-50.5 -27zM436 0l731 1266h168l-731 -1266h-168zM1085 2v131q55 47 126 101.5t132.5 110.5t103.5 111.5t42 106.5q0 47 -31 67.5t-78 20.5q-37 0 -61.5 -12 t-39.5 -28.5t-23.5 -33t-12.5 -24.5l-147 61q25 70 93 120t208 50q127 0 194.5 -60t67.5 -159q0 -39 -10.5 -75.5t-36 -76.5t-68.5 -82t-110 -89l-138 -105h371v-135h-582z" />
<glyph unicode="&#xbe;" horiz-adv-x="1751" d="M102 627l144 73q6 -14 15 -29.5t25.5 -28.5t42 -22.5t62.5 -9.5q59 0 94 26t35 75q0 59 -46 91t-155 32h-34v127h34q104 0 143.5 27.5t39.5 68.5q0 37 -26.5 60.5t-86.5 23.5q-111 0 -143 -84l-135 67q31 66 101.5 107t180.5 41q53 0 102.5 -11.5t87.5 -34t60.5 -60.5 t22.5 -89q0 -39 -14.5 -68.5t-37 -51t-50 -36t-56.5 -20.5q78 -16 127 -63t49 -129q0 -59 -22.5 -103.5t-63.5 -72t-96.5 -41t-118.5 -13.5q-66 0 -114 13.5t-80.5 35t-53 48t-33.5 51.5zM449 0l731 1266h168l-732 -1266h-167zM1012 184v115l297 473h237v-459h101v-129h-101 v-184h-164v184h-370zM1176 313h206v322z" />
<glyph unicode="&#xbf;" horiz-adv-x="774" d="M35 -66q0 76 21.5 136.5t55 113t73.5 98.5t77 96t64.5 107.5t35.5 130.5h168q-2 -86 -25.5 -151.5t-56 -118.5t-70.5 -98t-70 -90t-53.5 -94.5t-21.5 -110.5q0 -78 40 -127t126 -49q43 0 75 12t54.5 29.5t37 38t24.5 39.5l151 -93q-14 -31 -41.5 -66.5t-70.5 -64 t-102.5 -48t-139.5 -19.5q-160 0 -256 85t-96 244zM328 866q0 49 34.5 85t86.5 36q53 0 87.5 -35t34.5 -86q0 -49 -34.5 -85t-87.5 -36q-51 0 -86 37t-35 84z" />
<glyph unicode="&#xc0;" horiz-adv-x="1138" d="M51 0l314 1309q23 20 73.5 36.5t124.5 16.5q70 0 115 -18.5t76.5 -61.5t54 -113.5t47.5 -173.5l231 -995h-198l-101 434h-442l-102 -434h-193zM279 1647h200l150 -213h-144zM385 602h365l-60 270q-25 106 -40 169t-29.5 95.5t-28.5 42t-35 9.5q-27 0 -39 -8z" />
<glyph unicode="&#xc1;" horiz-adv-x="1138" d="M51 0l314 1309q23 20 73.5 36.5t124.5 16.5q70 0 115 -18.5t76.5 -61.5t54 -113.5t47.5 -173.5l231 -995h-198l-101 434h-442l-102 -434h-193zM385 602h365l-60 270q-25 106 -40 169t-29.5 95.5t-28.5 42t-35 9.5q-27 0 -39 -8zM475 1434l150 213h200l-209 -213h-141z " />
<glyph unicode="&#xc2;" horiz-adv-x="1138" d="M51 0l314 1309q23 20 73.5 36.5t124.5 16.5q70 0 115 -18.5t76.5 -61.5t54 -113.5t47.5 -173.5l231 -995h-198l-101 434h-442l-102 -434h-193zM313 1427l156 205h190l156 -205h-131l-119 117l-119 -117h-133zM385 602h365l-60 270q-25 106 -40 169t-29.5 95.5t-28.5 42 t-35 9.5q-27 0 -39 -8z" />
<glyph unicode="&#xc3;" horiz-adv-x="1138" d="M51 0l314 1309q23 20 73.5 36.5t124.5 16.5q70 0 115 -18.5t76.5 -61.5t54 -113.5t47.5 -173.5l231 -995h-198l-101 434h-442l-102 -434h-193zM279 1604l114 30q6 -23 20.5 -53.5t49.5 -30.5q20 0 42.5 12.5t49.5 28t56.5 28.5t66.5 13q70 0 109.5 -46t56.5 -118 l-115 -28q-6 23 -20.5 52.5t-49.5 29.5q-18 0 -41.5 -13.5t-50 -29t-57.5 -27.5t-68 -12q-66 0 -106.5 46t-56.5 118zM385 602h365l-60 270q-25 106 -40 169t-29.5 95.5t-28.5 42t-35 9.5q-27 0 -39 -8z" />
<glyph unicode="&#xc4;" horiz-adv-x="1138" d="M51 0l314 1309q23 20 73.5 36.5t124.5 16.5q70 0 115 -18.5t76.5 -61.5t54 -113.5t47.5 -173.5l231 -995h-198l-101 434h-442l-102 -434h-193zM322 1532q0 39 26.5 66.5t67.5 27.5q45 0 71.5 -27.5t26.5 -66.5q0 -37 -26.5 -64.5t-71.5 -27.5q-41 0 -67.5 27.5 t-26.5 64.5zM385 602h365l-60 270q-25 106 -40 169t-29.5 95.5t-28.5 42t-35 9.5q-27 0 -39 -8zM625 1532q0 39 25.5 66.5t68.5 27.5t69.5 -27.5t26.5 -66.5q0 -37 -26.5 -64.5t-69.5 -27.5t-68.5 27.5t-25.5 64.5z" />
<glyph unicode="&#xc5;" horiz-adv-x="1138" d="M51 0l314 1309q23 20 73.5 36.5t124.5 16.5q70 0 115 -18.5t76.5 -61.5t54 -113.5t47.5 -173.5l231 -995h-198l-101 434h-442l-102 -434h-193zM385 602h365l-60 270q-25 106 -40 169t-29.5 95.5t-28.5 42t-35 9.5q-27 0 -39 -8zM408 1565q0 72 45 111.5t108 39.5 t107.5 -40t44.5 -111q0 -72 -44 -112t-108 -40q-63 0 -108 40t-45 112zM496 1565q0 -31 16 -51.5t49 -20.5q29 0 46.5 20.5t17.5 51.5t-17.5 52t-46.5 21q-33 0 -49 -21.5t-16 -51.5z" />
<glyph unicode="&#xc6;" horiz-adv-x="1550" d="M25 0l385 1309q23 20 88 34.5t168 14.5q72 0 137 -3t86 -7h551v-170h-545v-381h465v-172h-465v-455h567v-170h-762v434h-358l-123 -434h-194zM393 602h307v586h-43q-35 0 -66.5 -2t-35.5 -6z" />
<glyph unicode="&#xc7;" horiz-adv-x="1064" d="M102 659q0 143 19.5 272.5t75 225.5t155 152.5t258.5 56.5q94 0 163 -21.5t116 -55.5t76.5 -77t46.5 -84l-166 -90q-29 66 -86.5 111t-157.5 45q-88 0 -146.5 -33t-92 -98.5t-47 -161.5t-13.5 -223q0 -131 15.5 -229.5t54.5 -164t102.5 -98t161.5 -32.5q109 0 177.5 36.5 t103.5 71.5q27 -39 51 -74.5t49 -74.5q-18 -18 -46 -39t-68 -39.5t-94 -31.5t-126 -17q4 -12 3 -25.5t-1 -23.5q0 -59 -19.5 -97.5t-60.5 -60t-103.5 -29.5t-146.5 -8q0 43 1 65.5t3 35t6.5 17.5t12.5 13q18 12 34.5 12h32.5h40.5t19.5 6.5t6 21.5v46v31q-125 18 -205 75.5 t-125 146.5t-62.5 202.5t-17.5 244.5z" />
<glyph unicode="&#xc8;" horiz-adv-x="989" d="M137 0v1348h740v-170h-543v-381h463v-172h-463v-455h565v-170h-762zM250 1647h201l149 -213h-141z" />
<glyph unicode="&#xc9;" horiz-adv-x="989" d="M137 0v1348h740v-170h-543v-381h463v-172h-463v-455h565v-170h-762zM422 1434l149 213h201l-209 -213h-141z" />
<glyph unicode="&#xca;" horiz-adv-x="989" d="M137 0v1348h740v-170h-543v-381h463v-172h-463v-455h565v-170h-762zM262 1427l156 205h190l156 -205h-131l-119 117l-121 -117h-131z" />
<glyph unicode="&#xcb;" horiz-adv-x="989" d="M137 0v1348h740v-170h-543v-381h463v-172h-463v-455h565v-170h-762zM272 1532q0 39 27 66.5t68 27.5q45 0 70.5 -27.5t25.5 -66.5q0 -37 -25.5 -64.5t-70.5 -27.5q-41 0 -68 27.5t-27 64.5zM573 1532q0 39 27 66.5t68 27.5q43 0 69.5 -27.5t26.5 -66.5q0 -37 -26.5 -64.5 t-69.5 -27.5q-41 0 -68 27.5t-27 64.5z" />
<glyph unicode="&#xcc;" horiz-adv-x="503" d="M-18 1647h200l150 -213h-144zM156 0v1348h194v-1348h-194z" />
<glyph unicode="&#xcd;" horiz-adv-x="503" d="M156 0v1348h194v-1348h-194zM172 1434l150 213h200l-209 -213h-141z" />
<glyph unicode="&#xce;" horiz-adv-x="503" d="M2 1427l156 205h190l156 -205h-131l-119 117l-121 -117h-131zM156 0v1348h194v-1348h-194z" />
<glyph unicode="&#xcf;" horiz-adv-x="503" d="M10 1532q0 39 25.5 66.5t66.5 27.5q47 0 73 -27.5t26 -66.5q0 -37 -25.5 -64.5t-73.5 -27.5q-41 0 -66.5 27.5t-25.5 64.5zM156 0v1348h194v-1348h-194zM311 1532q0 39 25.5 66.5t69.5 27.5q43 0 69.5 -27.5t26.5 -66.5q0 -37 -26.5 -64.5t-69.5 -27.5t-69 27.5t-26 64.5 z" />
<glyph unicode="&#xd1;" horiz-adv-x="1269" d="M143 0v1348h242l317 -580q135 -248 195.5 -381t63.5 -137q0 4 -5.5 144.5t-5.5 426.5v527h189v-1348h-226l-335 606q-133 240 -193.5 374t-62.5 138q0 -6 5 -146.5t5 -412.5v-559h-189zM381 1604l115 30q6 -23 20 -53.5t49 -30.5q20 0 43 12.5t49.5 28t56 28.5t66.5 13 q68 0 108 -46t56 -118l-115 -28q-6 23 -19 52.5t-48 29.5q-20 0 -43 -13.5t-49.5 -29t-57 -27.5t-67.5 -12q-68 0 -108 46t-56 118z" />
<glyph unicode="&#xd2;" horiz-adv-x="1259" d="M102 668q0 160 24 288.5t84 220t163.5 140.5t263.5 49q154 0 254 -46t159.5 -134t83 -216t23.5 -292q0 -162 -23.5 -291t-84 -219t-163.5 -138t-263 -48q-154 0 -254.5 46t-159.5 133t-83 215t-24 292zM305 670q0 -139 15.5 -237.5t52.5 -160t98.5 -90t155.5 -28.5 q98 0 162.5 30.5t101.5 95t51 165t14 237.5q0 129 -13 225.5t-49 159.5t-99.5 95t-161.5 32t-161.5 -32t-100.5 -96.5t-51.5 -163.5t-14.5 -232zM385 1647h199l151 -213h-143z" />
<glyph unicode="&#xd3;" horiz-adv-x="1259" d="M102 668q0 160 24 288.5t84 220t163.5 140.5t263.5 49q154 0 254 -46t159.5 -134t83 -216t23.5 -292q0 -162 -23.5 -291t-84 -219t-163.5 -138t-263 -48q-154 0 -254.5 46t-159.5 133t-83 215t-24 292zM305 670q0 -139 15.5 -237.5t52.5 -160t98.5 -90t155.5 -28.5 q98 0 162.5 30.5t101.5 95t51 165t14 237.5q0 129 -13 225.5t-49 159.5t-99.5 95t-161.5 32t-161.5 -32t-100.5 -96.5t-51.5 -163.5t-14.5 -232zM532 1434l150 213h201l-209 -213h-142z" />
<glyph unicode="&#xd4;" horiz-adv-x="1259" d="M102 668q0 160 24 288.5t84 220t163.5 140.5t263.5 49q154 0 254 -46t159.5 -134t83 -216t23.5 -292q0 -162 -23.5 -291t-84 -219t-163.5 -138t-263 -48q-154 0 -254.5 46t-159.5 133t-83 215t-24 292zM305 670q0 -139 15.5 -237.5t52.5 -160t98.5 -90t155.5 -28.5 q98 0 162.5 30.5t101.5 95t51 165t14 237.5q0 129 -13 225.5t-49 159.5t-99.5 95t-161.5 32t-161.5 -32t-100.5 -96.5t-51.5 -163.5t-14.5 -232zM389 1427l156 205h190l154 -205h-131l-119 117l-119 -117h-131z" />
<glyph unicode="&#xd5;" horiz-adv-x="1259" d="M102 668q0 160 24 288.5t84 220t163.5 140.5t263.5 49q154 0 254 -46t159.5 -134t83 -216t23.5 -292q0 -162 -23.5 -291t-84 -219t-163.5 -138t-263 -48q-154 0 -254.5 46t-159.5 133t-83 215t-24 292zM305 670q0 -139 15.5 -237.5t52.5 -160t98.5 -90t155.5 -28.5 q98 0 162.5 30.5t101.5 95t51 165t14 237.5q0 129 -13 225.5t-49 159.5t-99.5 95t-161.5 32t-161.5 -32t-100.5 -96.5t-51.5 -163.5t-14.5 -232zM356 1604l115 30q6 -23 20.5 -53.5t49.5 -30.5q20 0 42.5 12.5t49 28t56.5 28.5t67 13q68 0 107.5 -46t56.5 -118l-115 -28 q-6 23 -19.5 52.5t-48.5 29.5q-20 0 -42.5 -13.5t-49.5 -29t-57.5 -27.5t-67.5 -12q-68 0 -107.5 46t-56.5 118z" />
<glyph unicode="&#xd6;" horiz-adv-x="1259" d="M102 668q0 160 24 288.5t84 220t163.5 140.5t263.5 49q154 0 254 -46t159.5 -134t83 -216t23.5 -292q0 -162 -23.5 -291t-84 -219t-163.5 -138t-263 -48q-154 0 -254.5 46t-159.5 133t-83 215t-24 292zM305 670q0 -139 15.5 -237.5t52.5 -160t98.5 -90t155.5 -28.5 q98 0 162.5 30.5t101.5 95t51 165t14 237.5q0 129 -13 225.5t-49 159.5t-99.5 95t-161.5 32t-161.5 -32t-100.5 -96.5t-51.5 -163.5t-14.5 -232zM383 1532q0 39 26.5 66.5t67.5 27.5q47 0 72.5 -27.5t25.5 -66.5q0 -37 -25.5 -64.5t-72.5 -27.5q-41 0 -67.5 27.5t-26.5 64.5 zM686 1532q0 39 25.5 66.5t68.5 27.5t70 -27.5t27 -66.5q0 -37 -27 -64.5t-70 -27.5t-68.5 27.5t-25.5 64.5z" />
<glyph unicode="&#xd7;" d="M82 811l111 111l278 -281q70 72 137.5 140.5t139.5 138.5l108 -107l-278 -278q141 -137 278 -279l-111 -109l-278 277l-277 -277l-106 109l276 276q-72 70 -139 138.5t-139 140.5z" />
<glyph unicode="&#xd8;" horiz-adv-x="1259" d="M84 51l106 144q-47 86 -67.5 204.5t-20.5 268.5q0 160 24 288.5t84 220t163.5 140.5t263.5 49q113 0 195.5 -25.5t142.5 -74.5l84 114l115 -84l-105 -143q47 -86 67.5 -206t20.5 -269q0 -162 -23.5 -291t-84 -219t-164 -138t-262.5 -48q-115 0 -198 25.5t-142 74.5 l-82 -113zM305 670q0 -86 5 -157t20 -128l532 727q-37 41 -93 61.5t-136 20.5q-98 0 -161.5 -32t-100.5 -96.5t-51.5 -163.5t-14.5 -232zM397 238q39 -43 94.5 -63.5t135.5 -20.5q98 0 162.5 30.5t101.5 95t51 165t14 237.5q0 174 -26 283z" />
<glyph unicode="&#xd9;" horiz-adv-x="1198" d="M143 455v893h197v-850q0 -100 14.5 -166t50 -106t94 -56t148.5 -16q53 0 114.5 10t96.5 29v1155h195v-1268q-59 -39 -170 -68.5t-265 -29.5q-141 0 -233 29.5t-145.5 88t-75 147.5t-21.5 208zM346 1647h199l151 -213h-143z" />
<glyph unicode="&#xda;" horiz-adv-x="1198" d="M143 455v893h197v-850q0 -100 14.5 -166t50 -106t94 -56t148.5 -16q53 0 114.5 10t96.5 29v1155h195v-1268q-59 -39 -170 -68.5t-265 -29.5q-141 0 -233 29.5t-145.5 88t-75 147.5t-21.5 208zM543 1434l151 213h199l-209 -213h-141z" />
<glyph unicode="&#xdb;" horiz-adv-x="1198" d="M143 455v893h197v-850q0 -100 14.5 -166t50 -106t94 -56t148.5 -16q53 0 114.5 10t96.5 29v1155h195v-1268q-59 -39 -170 -68.5t-265 -29.5q-141 0 -233 29.5t-145.5 88t-75 147.5t-21.5 208zM346 1427l156 205h190l156 -205h-131l-119 117l-121 -117h-131z" />
<glyph unicode="&#xdc;" horiz-adv-x="1198" d="M143 455v893h197v-850q0 -100 14.5 -166t50 -106t94 -56t148.5 -16q53 0 114.5 10t96.5 29v1155h195v-1268q-59 -39 -170 -68.5t-265 -29.5q-141 0 -233 29.5t-145.5 88t-75 147.5t-21.5 208zM360 1532q0 39 27 66.5t68 27.5q45 0 71.5 -27.5t26.5 -66.5 q0 -37 -26.5 -64.5t-71.5 -27.5q-41 0 -68 27.5t-27 64.5zM664 1532q0 39 25.5 66.5t66.5 27.5q45 0 71.5 -27.5t26.5 -66.5q0 -37 -26.5 -64.5t-71.5 -27.5q-41 0 -66.5 27.5t-25.5 64.5z" />
<glyph unicode="&#xdf;" horiz-adv-x="1003" d="M119 0v981q0 203 89 293t269 90q92 0 155.5 -24.5t103.5 -63.5t58.5 -87t18.5 -97q0 -82 -27.5 -135.5t-61.5 -92.5t-61.5 -70.5t-27.5 -68.5q0 -31 23.5 -53.5t58.5 -46t74.5 -51t74.5 -65.5t58.5 -91t23.5 -127q0 -86 -26.5 -144.5t-73.5 -94.5t-111.5 -52t-138.5 -16 q-53 0 -101 6t-83 16l2 160q33 -12 76 -20.5t96 -8.5q178 0 178 144q0 51 -23.5 88t-57.5 65.5t-75 54t-74.5 55t-57 66.5t-23.5 90q0 63 25.5 107.5t57 82.5t57.5 80t26 103q0 55 -33 96t-115 41q-39 0 -70.5 -10t-54 -37.5t-35 -76t-12.5 -121.5v-965h-182z" />
<glyph unicode="&#xe0;" horiz-adv-x="876" d="M76 250q0 152 124 238.5t388 109.5v78q0 82 -32 118.5t-107 36.5q-78 0 -126.5 -33.5t-72.5 -80.5l-146 86q12 27 38 58.5t69 59t104.5 47t143.5 19.5q166 0 238.5 -76.5t72.5 -205.5v-629q-59 -47 -152.5 -70.5t-197.5 -23.5q-74 0 -137.5 14t-109.5 47t-71.5 83 t-25.5 124zM184 1360h236l155 -273h-167zM262 260q0 -59 43 -93t131 -34q47 0 85 7t67 24v285q-68 -6 -127.5 -18.5t-103.5 -35t-69.5 -55.5t-25.5 -80z" />
<glyph unicode="&#xe1;" horiz-adv-x="876" d="M76 250q0 152 124 238.5t388 109.5v78q0 82 -32 118.5t-107 36.5q-78 0 -126.5 -33.5t-72.5 -80.5l-146 86q12 27 38 58.5t69 59t104.5 47t143.5 19.5q166 0 238.5 -76.5t72.5 -205.5v-629q-59 -47 -152.5 -70.5t-197.5 -23.5q-74 0 -137.5 14t-109.5 47t-71.5 83 t-25.5 124zM262 260q0 -59 43 -93t131 -34q47 0 85 7t67 24v285q-68 -6 -127.5 -18.5t-103.5 -35t-69.5 -55.5t-25.5 -80zM330 1087l155 273h236l-225 -273h-166z" />
<glyph unicode="&#xe2;" horiz-adv-x="876" d="M76 250q0 152 124 238.5t388 109.5v78q0 82 -32 118.5t-107 36.5q-78 0 -126.5 -33.5t-72.5 -80.5l-146 86q12 27 38 58.5t69 59t104.5 47t143.5 19.5q166 0 238.5 -76.5t72.5 -205.5v-629q-59 -47 -152.5 -70.5t-197.5 -23.5q-74 0 -137.5 14t-109.5 47t-71.5 83 t-25.5 124zM164 1087l180 273h225l181 -273h-158l-135 156l-135 -156h-158zM262 260q0 -59 43 -93t131 -34q47 0 85 7t67 24v285q-68 -6 -127.5 -18.5t-103.5 -35t-69.5 -55.5t-25.5 -80z" />
<glyph unicode="&#xe3;" horiz-adv-x="876" d="M76 250q0 152 124 238.5t388 109.5v78q0 82 -32 118.5t-107 36.5q-78 0 -126.5 -33.5t-72.5 -80.5l-146 86q12 27 38 58.5t69 59t104.5 47t143.5 19.5q166 0 238.5 -76.5t72.5 -205.5v-629q-59 -47 -152.5 -70.5t-197.5 -23.5q-74 0 -137.5 14t-109.5 47t-71.5 83 t-25.5 124zM129 1286l135 37q2 -12 8.5 -28.5t15.5 -32t23.5 -25.5t34.5 -10q25 0 51.5 15t57 32.5t66.5 33t79 15.5q80 0 126 -54.5t67 -138.5l-136 -36q-4 14 -9 30.5t-14 31.5t-22.5 25.5t-33.5 10.5q-23 0 -50.5 -15.5t-59.5 -34t-67.5 -33.5t-78.5 -15q-78 0 -125 54 t-68 138zM262 260q0 -59 43 -93t131 -34q47 0 85 7t67 24v285q-68 -6 -127.5 -18.5t-103.5 -35t-69.5 -55.5t-25.5 -80z" />
<glyph unicode="&#xe4;" horiz-adv-x="876" d="M76 250q0 152 124 238.5t388 109.5v78q0 82 -32 118.5t-107 36.5q-78 0 -126.5 -33.5t-72.5 -80.5l-146 86q12 27 38 58.5t69 59t104.5 47t143.5 19.5q166 0 238.5 -76.5t72.5 -205.5v-629q-59 -47 -152.5 -70.5t-197.5 -23.5q-74 0 -137.5 14t-109.5 47t-71.5 83 t-25.5 124zM170 1212q0 45 30.5 78t80.5 33q53 0 83.5 -33t30.5 -78t-30.5 -76.5t-83.5 -31.5q-49 0 -80 31.5t-31 76.5zM262 260q0 -59 43 -93t131 -34q47 0 85 7t67 24v285q-68 -6 -127.5 -18.5t-103.5 -35t-69.5 -55.5t-25.5 -80zM524 1212q0 45 31 78t80 33q53 0 84 -33 t31 -78t-31 -76.5t-84 -31.5q-49 0 -80 31.5t-31 76.5z" />
<glyph unicode="&#xe5;" horiz-adv-x="876" d="M76 250q0 152 124 238.5t388 109.5v78q0 82 -32 118.5t-107 36.5q-78 0 -126.5 -33.5t-72.5 -80.5l-146 86q12 27 38 58.5t69 59t104.5 47t143.5 19.5q166 0 238.5 -76.5t72.5 -205.5v-629q-59 -47 -152.5 -70.5t-197.5 -23.5q-74 0 -137.5 14t-109.5 47t-71.5 83 t-25.5 124zM262 260q0 -59 43 -93t131 -34q47 0 85 7t67 24v285q-68 -6 -127.5 -18.5t-103.5 -35t-69.5 -55.5t-25.5 -80zM274 1231q0 86 53.5 132t127.5 46q76 0 128 -46t52 -132q0 -84 -52.5 -131t-127.5 -47q-74 0 -127.5 47t-53.5 131zM379 1231q0 -35 19.5 -59.5 t56.5 -24.5t56 24.5t19 59.5q0 37 -19 61.5t-56 24.5t-56.5 -24.5t-19.5 -61.5z" />
<glyph unicode="&#xe6;" horiz-adv-x="1396" d="M76 250q0 150 124 237.5t388 110.5v78q0 80 -31 117.5t-108 37.5q-78 0 -126.5 -33.5t-72.5 -80.5l-146 86q12 27 38 58.5t69 59t104.5 47t143.5 19.5q96 0 159.5 -28.5t96.5 -79.5q86 109 266 108q98 0 163.5 -29.5t105.5 -80t56.5 -117t16.5 -142.5q0 -57 -5 -111 t-13 -83h-531q2 -84 17.5 -139.5t43 -88t68.5 -45t94 -12.5q80 0 137.5 28t94.5 64l92 -137q-47 -47 -130 -79.5t-206 -32.5q-158 0 -252 71q-59 -35 -141 -53t-170 -18q-72 0 -135.5 14t-110.5 47t-73.5 83t-26.5 124zM262 260q0 -59 42 -93t132 -34q72 0 120 14.5t77 30.5 q-45 104 -45 271q-70 -6 -129.5 -19.5t-103.5 -36t-68.5 -55.5t-24.5 -78zM774 563h365q2 14 3 34.5t1 37.5q0 88 -36 143.5t-132 55.5q-104 0 -149.5 -68t-51.5 -203z" />
<glyph unicode="&#xe7;" horiz-adv-x="808" d="M68 473q0 117 21.5 212t69.5 161.5t122.5 102.5t179.5 36q125 0 199.5 -48t109.5 -140q-39 -18 -78 -37t-78 -39q-18 45 -52 76.5t-105 31.5q-109 0 -156 -88t-47 -258q0 -180 53 -263t172 -83q66 0 112 22.5t87 61.5l92 -133q-29 -29 -83 -59.5t-146 -40.5 q4 -10 3 -25.5t-1 -25.5q0 -59 -19.5 -97.5t-60.5 -60t-103.5 -29.5t-146.5 -8q0 66 2 92.5t16 36.5q20 14 72 14h40t19.5 6.5t6.5 21.5v46v31q-160 27 -230.5 148.5t-70.5 334.5z" />
<glyph unicode="&#xe8;" horiz-adv-x="884" d="M74 457q0 106 17.5 202.5t61.5 169t120.5 115.5t193.5 43q96 0 161.5 -29.5t105.5 -80t57.5 -117t17.5 -142.5q0 -57 -5 -111t-11 -85h-533q2 -84 17.5 -138.5t43 -87t68.5 -45t94 -12.5q78 0 136.5 28t95.5 64l92 -137q-47 -47 -131 -79.5t-203 -32.5 q-109 0 -185.5 31.5t-123.5 93t-68.5 149.5t-21.5 201zM197 1360h235l156 -273h-168zM260 563h365q2 14 3 34.5t1 37.5q0 88 -36 143.5t-132 55.5q-104 0 -149.5 -68t-51.5 -203z" />
<glyph unicode="&#xe9;" horiz-adv-x="884" d="M74 457q0 106 17.5 202.5t61.5 169t120.5 115.5t193.5 43q96 0 161.5 -29.5t105.5 -80t57.5 -117t17.5 -142.5q0 -57 -5 -111t-11 -85h-533q2 -84 17.5 -138.5t43 -87t68.5 -45t94 -12.5q78 0 136.5 28t95.5 64l92 -137q-47 -47 -131 -79.5t-203 -32.5 q-109 0 -185.5 31.5t-123.5 93t-68.5 149.5t-21.5 201zM260 563h365q2 14 3 34.5t1 37.5q0 88 -36 143.5t-132 55.5q-104 0 -149.5 -68t-51.5 -203zM375 1087l155 273h236l-225 -273h-166z" />
<glyph unicode="&#xea;" horiz-adv-x="884" d="M74 457q0 106 17.5 202.5t61.5 169t120.5 115.5t193.5 43q96 0 161.5 -29.5t105.5 -80t57.5 -117t17.5 -142.5q0 -57 -5 -111t-11 -85h-533q2 -84 17.5 -138.5t43 -87t68.5 -45t94 -12.5q78 0 136.5 28t95.5 64l92 -137q-47 -47 -131 -79.5t-203 -32.5 q-109 0 -185.5 31.5t-123.5 93t-68.5 149.5t-21.5 201zM180 1087l182 273h226l180 -273h-160l-133 156l-135 -156h-160zM260 563h365q2 14 3 34.5t1 37.5q0 88 -36 143.5t-132 55.5q-104 0 -149.5 -68t-51.5 -203z" />
<glyph unicode="&#xeb;" horiz-adv-x="884" d="M74 457q0 106 17.5 202.5t61.5 169t120.5 115.5t193.5 43q96 0 161.5 -29.5t105.5 -80t57.5 -117t17.5 -142.5q0 -57 -5 -111t-11 -85h-533q2 -84 17.5 -138.5t43 -87t68.5 -45t94 -12.5q78 0 136.5 28t95.5 64l92 -137q-47 -47 -131 -79.5t-203 -32.5 q-109 0 -185.5 31.5t-123.5 93t-68.5 149.5t-21.5 201zM190 1212q0 45 31 78t80 33q51 0 82 -33t31 -78t-31 -76.5t-82 -31.5q-49 0 -80 31.5t-31 76.5zM260 563h365q2 14 3 34.5t1 37.5q0 88 -36 143.5t-132 55.5q-104 0 -149.5 -68t-51.5 -203zM545 1212q0 45 29.5 78 t80.5 33t82 -33t31 -78t-30.5 -76.5t-82.5 -31.5q-51 0 -80.5 31.5t-29.5 76.5z" />
<glyph unicode="&#xec;" horiz-adv-x="438" d="M-68 1360h236l156 -273h-166zM127 0v967h182v-967h-182z" />
<glyph unicode="&#xed;" horiz-adv-x="438" d="M113 1087l155 273h236l-225 -273h-166zM127 0v967h182v-967h-182z" />
<glyph unicode="&#xee;" horiz-adv-x="438" d="M-76 1087l182 273h226l180 -273h-160l-135 156l-135 -156h-158zM127 0v967h182v-967h-182z" />
<glyph unicode="&#xef;" horiz-adv-x="438" d="M-68 1212q0 45 30 78t79 33q53 0 84 -33t31 -78t-31 -76.5t-84 -31.5q-49 0 -79 31.5t-30 76.5zM127 0v967h182v-967h-182zM285 1212q0 45 30.5 78t79.5 33q53 0 84 -33t31 -78t-30.5 -76.5t-84.5 -31.5q-49 0 -79.5 31.5t-30.5 76.5z" />
<glyph unicode="&#xf1;" horiz-adv-x="948" d="M119 0v918q57 29 150 49t196 20q115 0 187.5 -27.5t114.5 -80t57.5 -128t15.5 -169.5v-582h-183v530q0 72 -5 128.5t-25.5 94.5t-61.5 57t-110 19q-45 0 -88 -6t-66 -16v-807h-182zM150 1286l133 37q4 -12 10 -28.5t15 -32t23.5 -25.5t35.5 -10q25 0 51 15t57 32.5 t65.5 33t77.5 15.5q82 0 128.5 -54.5t66.5 -138.5l-135 -36q-4 14 -9 30.5t-14.5 31.5t-24 25.5t-34.5 10.5q-23 0 -49.5 -15.5t-58 -34t-67.5 -33.5t-79 -15q-78 0 -125 54t-67 138z" />
<glyph unicode="&#xf2;" horiz-adv-x="946" d="M74 469q0 123 20.5 219t68.5 163t126 101.5t194 34.5q113 0 187.5 -31.5t120 -95t64.5 -156t19 -210.5q0 -121 -19 -215.5t-66.5 -161t-127 -101t-198.5 -34.5q-111 0 -185.5 30.5t-119.5 92t-64.5 152.5t-19.5 212zM195 1360h235l156 -273h-166zM260 471q0 -176 42 -255 t165 -79t172 82t49 285q0 88 -9 149.5t-32.5 101.5t-63.5 58t-102 18q-63 0 -105 -19t-67.5 -62t-37 -112t-11.5 -167z" />
<glyph unicode="&#xf3;" horiz-adv-x="946" d="M74 469q0 123 20.5 219t68.5 163t126 101.5t194 34.5q113 0 187.5 -31.5t120 -95t64.5 -156t19 -210.5q0 -121 -19 -215.5t-66.5 -161t-127 -101t-198.5 -34.5q-111 0 -185.5 30.5t-119.5 92t-64.5 152.5t-19.5 212zM260 471q0 -176 42 -255t165 -79t172 82t49 285 q0 88 -9 149.5t-32.5 101.5t-63.5 58t-102 18q-63 0 -105 -19t-67.5 -62t-37 -112t-11.5 -167zM360 1087l158 273h234l-226 -273h-166z" />
<glyph unicode="&#xf4;" horiz-adv-x="946" d="M74 469q0 123 20.5 219t68.5 163t126 101.5t194 34.5q113 0 187.5 -31.5t120 -95t64.5 -156t19 -210.5q0 -121 -19 -215.5t-66.5 -161t-127 -101t-198.5 -34.5q-111 0 -185.5 30.5t-119.5 92t-64.5 152.5t-19.5 212zM188 1087l183 273h225l180 -273h-160l-133 156 l-135 -156h-160zM260 471q0 -176 42 -255t165 -79t172 82t49 285q0 88 -9 149.5t-32.5 101.5t-63.5 58t-102 18q-63 0 -105 -19t-67.5 -62t-37 -112t-11.5 -167z" />
<glyph unicode="&#xf5;" horiz-adv-x="946" d="M74 469q0 123 20.5 219t68.5 163t126 101.5t194 34.5q113 0 187.5 -31.5t120 -95t64.5 -156t19 -210.5q0 -121 -19 -215.5t-66.5 -161t-127 -101t-198.5 -34.5q-111 0 -185.5 30.5t-119.5 92t-64.5 152.5t-19.5 212zM154 1286l135 37q2 -12 8 -28.5t15.5 -32t23.5 -25.5 t35 -10q25 0 51.5 15t57 32.5t66.5 33t79 15.5q80 0 126 -54.5t66 -138.5l-135 -36q-4 14 -9 30.5t-14.5 31.5t-22.5 25.5t-34 10.5q-23 0 -50.5 -15.5t-59 -34t-67.5 -33.5t-79 -15q-78 0 -125 54t-67 138zM260 471q0 -176 42 -255t165 -79t172 82t49 285q0 88 -9 149.5 t-32.5 101.5t-63.5 58t-102 18q-63 0 -105 -19t-67.5 -62t-37 -112t-11.5 -167z" />
<glyph unicode="&#xf6;" horiz-adv-x="946" d="M74 469q0 123 20.5 219t68.5 163t126 101.5t194 34.5q113 0 187.5 -31.5t120 -95t64.5 -156t19 -210.5q0 -121 -19 -215.5t-66.5 -161t-127 -101t-198.5 -34.5q-111 0 -185.5 30.5t-119.5 92t-64.5 152.5t-19.5 212zM195 1212q0 45 30.5 78t79.5 33q53 0 84 -33t31 -78 t-31 -76.5t-84 -31.5q-49 0 -79.5 31.5t-30.5 76.5zM260 471q0 -176 42 -255t165 -79t172 82t49 285q0 88 -9 149.5t-32.5 101.5t-63.5 58t-102 18q-63 0 -105 -19t-67.5 -62t-37 -112t-11.5 -167zM549 1212q0 45 30.5 78t79.5 33q53 0 84 -33t31 -78t-30.5 -76.5 t-84.5 -31.5q-49 0 -79.5 31.5t-30.5 76.5z" />
<glyph unicode="&#xf7;" d="M63 459v151h816v-151h-816zM350 209q0 51 34 86t87 35q51 0 86 -36t35 -85t-35 -85t-86 -36q-53 0 -87 36t-34 85zM350 860q0 49 34 85t87 36q51 0 86 -36t35 -85t-35 -85t-86 -36q-53 0 -87 35t-34 86z" />
<glyph unicode="&#xf8;" horiz-adv-x="946" d="M74 469q0 123 20.5 219t68.5 163t126 101.5t194 34.5q76 0 134.5 -16.5t103.5 -44.5l53 73l100 -71l-67 -92q35 -61 51 -146.5t16 -195.5q0 -121 -19 -215.5t-66.5 -161t-127 -101t-198.5 -34.5q-145 0 -232 55l-53 -76l-100 70l65 92q-37 61 -53 147t-16 199zM260 471 q0 -53 2 -94t10 -76l349 485q-47 45 -140 45q-63 0 -105 -19t-67.5 -62t-37 -112t-11.5 -167zM332 176q45 -39 135 -39q123 0 172 82t49 285q0 90 -12 151z" />
<glyph unicode="&#xf9;" d="M109 416v551h182v-518q0 -80 6 -137.5t26.5 -95.5t59.5 -56.5t104 -18.5q41 0 85 10.5t67 26.5v789h182v-889q-57 -41 -144 -68.5t-204 -27.5q-115 0 -185.5 28.5t-110.5 84t-54 136t-14 185.5zM180 1360h236l155 -273h-168z" />
<glyph unicode="&#xfa;" d="M109 416v551h182v-518q0 -80 6 -137.5t26.5 -95.5t59.5 -56.5t104 -18.5q41 0 85 10.5t67 26.5v789h182v-889q-57 -41 -144 -68.5t-204 -27.5q-115 0 -185.5 28.5t-110.5 84t-54 136t-14 185.5zM387 1087l158 273h233l-225 -273h-166z" />
<glyph unicode="&#xfb;" d="M109 416v551h182v-518q0 -80 6 -137.5t26.5 -95.5t59.5 -56.5t104 -18.5q41 0 85 10.5t67 26.5v789h182v-889q-57 -41 -144 -68.5t-204 -27.5q-115 0 -185.5 28.5t-110.5 84t-54 136t-14 185.5zM176 1087l182 273h226l180 -273h-160l-135 156l-135 -156h-158z" />
<glyph unicode="&#xfc;" d="M109 416v551h182v-518q0 -80 6 -137.5t26.5 -95.5t59.5 -56.5t104 -18.5q41 0 85 10.5t67 26.5v789h182v-889q-57 -41 -144 -68.5t-204 -27.5q-115 0 -185.5 28.5t-110.5 84t-54 136t-14 185.5zM184 1212q0 45 31 78t80 33q53 0 84 -33t31 -78t-31 -76.5t-84 -31.5 q-49 0 -80 31.5t-31 76.5zM539 1212q0 45 30.5 78t79.5 33q53 0 84 -33t31 -78t-31 -76.5t-84 -31.5q-49 0 -79.5 31.5t-30.5 76.5z" />
<glyph unicode="&#xff;" horiz-adv-x="913" d="M37 967h196l146 -527q23 -88 44 -141t38 -78l229 746h191l-349 -1065q-29 -84 -61.5 -136.5t-69 -80t-78.5 -36.5t-87 -9q-66 0 -114 19t-71 42l84 139q16 -14 44 -27.5t63 -13.5q23 0 42 7.5t35.5 25.5t32 51t31.5 86l14 49q-55 39 -96 117t-82 217zM174 1212 q0 45 31 78t80 33q51 0 81.5 -33t30.5 -78t-30.5 -76.5t-81.5 -31.5q-49 0 -80 31.5t-31 76.5zM528 1212q0 45 30 78t81 33t82 -33t31 -78t-31 -76.5t-82 -31.5t-81 31.5t-30 76.5z" />
<glyph unicode="&#x152;" horiz-adv-x="1677" d="M102 668q0 160 24 288.5t84 220t163.5 140.5t263.5 49q127 0 199 -35v17h739v-170h-545v-381h465v-172h-465v-455h567v-170h-761v16q-41 -16 -93.5 -25t-119.5 -9q-154 0 -254.5 46t-159.5 133t-83 215t-24 292zM305 670q0 -139 15.5 -237.5t52.5 -160t98 -90t156 -28.5 q135 0 209 59v924q-72 57 -203 57q-98 0 -161.5 -32t-100.5 -96.5t-51.5 -163.5t-14.5 -232z" />
<glyph unicode="&#x153;" horiz-adv-x="1501" d="M74 469q0 123 20.5 219t68.5 163t126 101.5t194 34.5q113 0 187.5 -32.5t120.5 -96.5q47 59 117.5 94t176.5 35q96 0 161 -29.5t105 -80t57 -117t17 -142.5q0 -57 -4 -111t-12 -85h-532q2 -84 17 -138.5t43 -87t69 -45t94 -12.5q80 0 137 28t94 64l92 -137 q-47 -47 -130 -79.5t-203 -32.5q-111 0 -187 31.5t-123 95.5q-47 -61 -123.5 -94t-193.5 -33q-111 0 -185.5 30.5t-119.5 92t-64.5 152.5t-19.5 212zM260 471q0 -176 42 -255t165 -79t172 82t49 285q0 88 -9 149.5t-32.5 101.5t-63.5 58t-102 18q-63 0 -105 -19t-67.5 -62 t-37 -112t-11.5 -167zM877 563h364q2 14 3 34.5t1 37.5q0 88 -35.5 143.5t-132.5 55.5q-104 0 -148 -68t-52 -203z" />
<glyph unicode="&#x178;" horiz-adv-x="1030" d="M20 1348h218l282 -684l283 684h207l-398 -904v-444h-194v444zM276 1532q0 39 26 66.5t67 27.5q47 0 72.5 -27.5t25.5 -66.5q0 -37 -25.5 -64.5t-72.5 -27.5q-41 0 -67 27.5t-26 64.5zM578 1532q0 39 25.5 66.5t68.5 27.5t69.5 -27.5t26.5 -66.5q0 -37 -26.5 -64.5 t-69.5 -27.5t-68.5 27.5t-25.5 64.5z" />
<glyph unicode="&#x2c6;" horiz-adv-x="796" d="M104 1087l183 273h225l180 -273h-160l-135 156l-135 -156h-158z" />
<glyph unicode="&#x2dc;" horiz-adv-x="872" d="M104 1286l134 37q4 -12 10 -28.5t15 -32t23.5 -25.5t35.5 -10q25 0 51 15t57 32.5t65.5 33t77.5 15.5q82 0 128.5 -54.5t66.5 -138.5l-135 -36q-4 14 -9.5 30.5t-14.5 31.5t-23.5 25.5t-34.5 10.5q-23 0 -49.5 -15.5t-58 -34t-67.5 -33.5t-79 -15q-78 0 -125 54t-68 138z " />
<glyph unicode="&#x2000;" horiz-adv-x="858" />
<glyph unicode="&#x2001;" horiz-adv-x="1716" />
<glyph unicode="&#x2002;" horiz-adv-x="858" />
<glyph unicode="&#x2003;" horiz-adv-x="1716" />
<glyph unicode="&#x2004;" horiz-adv-x="572" />
<glyph unicode="&#x2005;" horiz-adv-x="429" />
<glyph unicode="&#x2006;" horiz-adv-x="286" />
<glyph unicode="&#x2007;" horiz-adv-x="286" />
<glyph unicode="&#x2008;" horiz-adv-x="214" />
<glyph unicode="&#x2009;" horiz-adv-x="343" />
<glyph unicode="&#x200a;" horiz-adv-x="95" />
<glyph unicode="&#x2010;" horiz-adv-x="659" d="M70 459v172h522v-172h-522z" />
<glyph unicode="&#x2011;" horiz-adv-x="659" d="M70 459v172h522v-172h-522z" />
<glyph unicode="&#x2012;" horiz-adv-x="659" d="M70 459v172h522v-172h-522z" />
<glyph unicode="&#x2013;" horiz-adv-x="1003" d="M70 459v172h864v-172h-864z" />
<glyph unicode="&#x2014;" horiz-adv-x="1671" d="M70 459v172h1534v-172h-1534z" />
<glyph unicode="&#x2018;" horiz-adv-x="423" d="M78 958l104 390h166l-80 -390h-190z" />
<glyph unicode="&#x2019;" horiz-adv-x="423" d="M78 958l78 390h192l-106 -390h-164z" />
<glyph unicode="&#x201a;" horiz-adv-x="423" d="M78 -113l78 389h192l-106 -389h-164z" />
<glyph unicode="&#x201c;" horiz-adv-x="735" d="M78 958l104 390h166l-80 -390h-190zM387 958l107 390h163l-77 -390h-193z" />
<glyph unicode="&#x201d;" horiz-adv-x="735" d="M78 958l78 390h192l-106 -390h-164zM387 958l78 390h192l-104 -390h-166z" />
<glyph unicode="&#x201e;" horiz-adv-x="735" d="M78 -113l78 389h192l-106 -389h-164zM387 -113l78 389h192l-104 -389h-166z" />
<glyph unicode="&#x2022;" horiz-adv-x="626" d="M76 674q0 104 66.5 171.5t170.5 67.5t172 -67.5t68 -171.5q0 -53 -18.5 -98.5t-50 -77t-76 -50t-95.5 -18.5q-104 0 -170.5 68.5t-66.5 175.5z" />
<glyph unicode="&#x2026;" horiz-adv-x="1280" d="M92 104q0 51 34 87t87 36t88 -36.5t35 -86.5q0 -51 -35 -84.5t-88 -33.5t-87 33.5t-34 84.5zM518 104q0 51 35 87t86 36q53 0 88 -36.5t35 -86.5q0 -51 -35 -84.5t-88 -33.5q-51 0 -86 33.5t-35 84.5zM944 104q0 51 35 87t86 36q53 0 88 -36.5t35 -86.5q0 -51 -35 -84.5 t-88 -33.5q-51 0 -86 33.5t-35 84.5z" />
<glyph unicode="&#x202f;" horiz-adv-x="343" />
<glyph unicode="&#x2039;" horiz-adv-x="655" d="M96 440v129l463 381v-192l-311 -252l311 -252v-195z" />
<glyph unicode="&#x203a;" horiz-adv-x="655" d="M94 57v197l312 252q-78 61 -156 123.5t-156 126.5v194l465 -383v-129z" />
<glyph unicode="&#x205f;" horiz-adv-x="429" />
<glyph unicode="&#x20ac;" d="M39 438v137h94v76t2 58h-96v135h104q12 96 41 177t80 139.5t129 91t191 32.5q76 0 133 -15.5t97 -41t64.5 -56t36.5 -61.5l-147 -98q-25 47 -69 74.5t-121 27.5q-117 0 -170.5 -67.5t-69.5 -202.5h381v-135h-391v-134h391v-137h-383q20 -150 82.5 -219t191.5 -69 q96 0 152.5 31.5t89.5 66.5l82 -156q-12 -12 -38 -30.5t-65.5 -37t-97 -30.5t-131.5 -12q-121 0 -204 33.5t-137 94t-81.5 144.5t-40.5 184h-100z" />
<glyph unicode="&#x2122;" horiz-adv-x="1798" d="M78 1221v127h647v-127h-248v-729h-151v729h-248zM834 492v856h206l117 -336q49 -139 71.5 -221t31.5 -132h2q6 49 27.5 133.5t68.5 221.5l121 334h200v-856h-143v286q0 68 1 129.5t3 111.5t4 85t2 47h-4q-4 -20 -28.5 -101t-71.5 -212l-123 -346h-125l-123 348 q-49 141 -72.5 215.5t-29.5 95.5h-4q2 -10 4 -45t4 -85t3 -112.5t1 -130.5v-286h-143z" />
<glyph unicode="&#x25fc;" horiz-adv-x="962" d="M0 0v963h963v-963h-963z" />
<glyph unicode="&#xfb01;" horiz-adv-x="1046" d="M37 821v146h145v67q0 180 101.5 267.5t269.5 87.5q123 0 202 -31t115 -60l-88 -141q-18 20 -80.5 47t-150.5 27q-86 0 -136 -41t-50 -154v-69h553v-967h-183v821h-370v-821h-183v821h-145z" />
<glyph unicode="&#xfb02;" horiz-adv-x="1110" d="M37 821v146h145v67q0 180 78 267.5t225 87.5q61 0 102.5 -13.5t69.5 -29.5l-67 -140q-16 10 -41 17.5t-55 7.5q-63 0 -96 -40t-33 -147v-77h249v-146h-249v-821h-183v821h-145zM745 242v1122h183v-1088q0 -31 3 -54t13 -40.5t31.5 -26t56.5 -8.5h15.5t21.5 3l8 -154 q-10 -2 -32.5 -4t-57.5 -2q-121 0 -181.5 54t-60.5 198z" />
</font>
</defs>
</svg>
