<?xml version="1.0" standalone="no"?>
<!DOCTYPE svg PUBLIC "-//W3C//DTD SVG 1.1//EN" "http://www.w3.org/Graphics/SVG/1.1/DTD/svg11.dtd" >
<svg xmlns="http://www.w3.org/2000/svg">
<metadata></metadata>
<defs>
<font id="turkcell_saturabold" horiz-adv-x="940" >
<font-face units-per-em="2048" ascent="1638" descent="-410" />
<missing-glyph horiz-adv-x="389" />
<glyph horiz-adv-x="2048" />
<glyph horiz-adv-x="2048" />
<glyph unicode="&#xd;" horiz-adv-x="2048" />
<glyph unicode=" "  horiz-adv-x="389" />
<glyph unicode="&#x09;" horiz-adv-x="389" />
<glyph unicode="&#xa0;" horiz-adv-x="389" />
<glyph unicode="!" horiz-adv-x="505" d="M104 129q0 63 41 105t107 42t107.5 -44t41.5 -103q0 -61 -42 -103t-107 -42q-66 0 -107 41t-41 104zM111 1217q0 68 36.5 110.5t106.5 42.5q72 0 108.5 -43t36.5 -110q0 -84 -12 -301.5t-29 -528.5h-208q-14 311 -26.5 529.5t-12.5 300.5z" />
<glyph unicode="&#x22;" horiz-adv-x="729" d="M84 1348h233l-22 -430h-189zM412 1348h233l-22 -430h-189z" />
<glyph unicode="#" horiz-adv-x="942" d="M53 360v172h119l23 216h-111v174h129l37 344h201l-37 -344h170l37 344h200l-37 -344h105v-174h-123l-23 -216h113v-172h-129l-37 -360h-201l37 360h-170l-37 -360h-200l37 360h-103zM373 532h170l22 216h-170z" />
<glyph unicode="$" d="M31 223l192 144q8 -18 22.5 -42t37 -48.5t55.5 -45t80 -28.5v340q-59 23 -117.5 50.5t-106 70.5t-77 104t-29.5 152q0 150 89 241.5t241 114.5v121h147v-119q72 -6 127.5 -26.5t97 -51.5t70.5 -67.5t45 -75.5l-192 -125q-20 35 -54 70.5t-94 50.5v-314 q59 -25 119.5 -54.5t109 -74.5t79 -111.5t30.5 -160.5q0 -86 -27.5 -148.5t-74.5 -105.5t-108.5 -67.5t-127.5 -32.5v-172h-147v170q-82 6 -146.5 29.5t-111.5 57t-79 73.5t-50 81zM328 930q0 -43 23.5 -75t66.5 -54v252q-51 -10 -70.5 -45t-19.5 -78zM565 203 q57 18 74.5 54t17.5 83q0 90 -92 141v-278z" />
<glyph unicode="%" horiz-adv-x="1871" d="M82 866q0 221 84 313.5t266 92.5q86 0 149.5 -20.5t104.5 -67.5t60.5 -122t19.5 -185q0 -215 -85 -306.5t-271 -91.5q-168 0 -248 87t-80 300zM297 854q0 -115 26.5 -158t92.5 -43q33 0 58.5 10.5t41.5 38t24.5 74.5t8.5 121q0 115 -30 157t-95 42q-33 0 -56.5 -10.5 t-39 -37t-23.5 -73.5t-8 -121zM463 0l731 1266h221l-731 -1266h-221zM1106 377q0 221 84 313t266 92q86 0 149.5 -20.5t104.5 -67.5t60.5 -121.5t19.5 -185.5q0 -215 -85 -306t-271 -91q-168 0 -248 87t-80 300zM1321 365q0 -115 26.5 -158t92.5 -43q33 0 58.5 10t41.5 38 t24.5 75t8.5 121q0 115 -30 156.5t-95 41.5q-33 0 -56.5 -10t-39 -37t-23.5 -74t-8 -120z" />
<glyph unicode="&#x26;" horiz-adv-x="1239" d="M63 324q0 57 15.5 108t50.5 99.5t91 94.5t140 93q-57 78 -95 161t-38 183q0 57 19.5 112.5t63.5 98.5t115 69.5t171 26.5q106 0 178 -29.5t115 -76.5t61.5 -103.5t18.5 -111.5q0 -133 -69 -224.5t-210 -175.5l197 -252q33 55 51 112.5t29 106.5l231 -69 q-23 -84 -62.5 -171t-103.5 -165l166 -211h-293l-49 63q-72 -41 -161 -63.5t-199 -22.5q-205 0 -319 93.5t-114 253.5zM317 336q0 -29 12.5 -56.5t38 -49t63.5 -36t89 -14.5q61 0 112.5 14.5t94.5 38.5l-244 324q-94 -53 -130 -104.5t-36 -116.5zM471 1047q0 -61 26.5 -119 t71.5 -121q86 53 123 105.5t37 123.5q0 59 -33.5 97t-99.5 38q-59 0 -92 -31.5t-33 -92.5z" />
<glyph unicode="'" horiz-adv-x="401" d="M84 1348h233l-22 -430h-189z" />
<glyph unicode="(" horiz-adv-x="684" d="M102 494q0 141 22.5 276t71 260t120 234.5t169.5 199.5l158 -145q-92 -96 -150.5 -202.5t-91 -214t-45 -212t-12.5 -196.5t12.5 -196.5t45 -212.5t91 -215.5t150.5 -203.5l-158 -143q-98 90 -169.5 199.5t-120 234.5t-71 260t-22.5 277z" />
<glyph unicode=")" horiz-adv-x="684" d="M41 -334q92 96 150.5 203.5t91 215.5t45 212t12.5 197q0 92 -12.5 196.5t-45 212t-91 214t-150.5 202.5l158 145q98 -90 169.5 -199.5t120 -234.5t71 -260t22.5 -276t-22.5 -276.5t-71 -260.5t-120 -234.5t-169.5 -199.5z" />
<glyph unicode="*" horiz-adv-x="704" d="M82 1071l141 78l-141 78l68 116l135 -83v161h135v-161l135 83l68 -116l-142 -78l142 -78l-68 -117l-135 84v-161h-135v161l-135 -84z" />
<glyph unicode="+" d="M63 436v197h306v309h204v-309h306v-197h-306v-309h-204v309h-306z" />
<glyph unicode="," horiz-adv-x="446" d="M25 -207l81 424h248l-118 -424h-211z" />
<glyph unicode="-" horiz-adv-x="659" d="M63 428v229h535v-229h-535z" />
<glyph unicode="." horiz-adv-x="446" d="M76 129q0 63 41 105t106 42q66 0 108 -44t42 -103q0 -61 -42 -103t-108 -42t-106.5 41t-40.5 104z" />
<glyph unicode="/" horiz-adv-x="827" d="M10 -80l565 1487h242l-565 -1487h-242z" />
<glyph unicode="0" horiz-adv-x="942" d="M45 616q0 182 22.5 309.5t74 207t135 115.5t204.5 36q117 0 196 -33.5t128 -109.5t69.5 -199t20.5 -301t-22.5 -303t-73.5 -204t-135 -114.5t-209 -35.5q-115 0 -193 32.5t-126 107.5t-69.5 195.5t-21.5 296.5zM295 606q0 -115 5 -192.5t22.5 -124.5t50.5 -68.5t86 -21.5 q57 0 93 21.5t56.5 74.5t27.5 142t7 225q0 113 -6 190.5t-24.5 124.5t-52.5 68.5t-89 21.5t-89 -21.5t-53.5 -73.5t-26.5 -141.5t-7 -224.5z" />
<glyph unicode="1" horiz-adv-x="845" d="M41 1087q20 18 69.5 50t120 64t159.5 54.5t192 22.5v-1063h237v-215h-715v215h236v791q-63 -25 -112.5 -54.5t-69.5 -44.5z" />
<glyph unicode="2" horiz-adv-x="942" d="M49 0v211l330 321q43 41 85 89.5t75.5 98.5t55 102t21.5 100q0 76 -43 110.5t-100 34.5q-49 0 -84 -20.5t-56.5 -47t-31.5 -53t-14 -39.5l-228 97q18 55 51 106t85.5 90t127 61.5t175.5 22.5q90 0 160.5 -26.5t118.5 -74.5t72.5 -113.5t24.5 -143.5q0 -63 -16 -123 t-53 -122.5t-98.5 -132t-151.5 -155.5l-188 -178h518v-215h-836z" />
<glyph unicode="3" horiz-adv-x="942" d="M27 223l227 119q8 -20 21.5 -45t37 -46.5t57 -36.5t83.5 -15q80 0 125 41t47 122q4 96 -63.5 151.5t-213.5 55.5h-69v203h69q143 0 196.5 45t53.5 117q0 59 -35 97t-114 38q-78 0 -123 -38t-74 -103l-209 114q45 111 147.5 176.5t262.5 65.5q80 0 151.5 -17.5t125.5 -55 t86 -97t32 -143.5q0 -66 -19.5 -115t-50 -86t-70.5 -60.5t-79 -35.5q109 -29 178.5 -105.5t69.5 -208.5q0 -98 -33 -168.5t-91.5 -116.5t-137 -68.5t-173.5 -22.5q-100 0 -170.5 22.5t-119 57t-78 76.5t-47.5 83z" />
<glyph unicode="4" horiz-adv-x="942" d="M20 303v186l414 777h363v-754h141v-209h-141v-303h-248v303h-529zM268 512h281v532z" />
<glyph unicode="5" horiz-adv-x="942" d="M33 190l182 142q8 -16 23.5 -39t42 -43.5t64.5 -35.5t91 -15q96 0 142.5 63.5t46.5 159.5t-39 158.5t-140 62.5q-45 0 -78.5 -14.5t-56.5 -34.5h-188l55 672h672v-215h-473l-21 -252q20 10 55 22.5t93 12.5q104 0 176 -34t116 -89.5t62.5 -126t18.5 -146.5 q0 -100 -26 -184t-80 -143.5t-138 -93t-199 -33.5q-92 0 -159.5 20.5t-116.5 52t-80 67.5t-45 66z" />
<glyph unicode="6" horiz-adv-x="942" d="M59 590q0 156 25 285t80 219t144 140t220 50q74 0 129.5 -16.5t96.5 -44t69.5 -66.5t48.5 -84l-210 -104q-16 37 -50 67.5t-108 30.5q-96 0 -140.5 -68.5t-52.5 -238.5q23 12 72 24.5t121 12.5q188 0 291.5 -100.5t103.5 -295.5q0 -190 -103.5 -303.5t-316.5 -113.5 q-104 0 -183 32.5t-131 104.5t-79 187.5t-27 281.5zM305 504q0 -152 44 -228.5t147 -76.5q76 0 116.5 46t40.5 142q0 106 -50 151.5t-154 45.5q-51 0 -89 -9.5t-55 -19.5v-51z" />
<glyph unicode="7" horiz-adv-x="942" d="M66 1051v215h802v-174q-78 -166 -142 -328t-113.5 -305.5t-85 -261t-56.5 -197.5h-264q18 82 59 202t97.5 259t125 290.5t144.5 299.5h-567z" />
<glyph unicode="8" horiz-adv-x="942" d="M45 332q0 111 57.5 200t173.5 144q-86 45 -138 115.5t-52 171.5q0 61 22.5 119.5t69.5 103.5t118 71.5t169 26.5t171 -27.5t122 -72.5t72.5 -103.5t23.5 -119.5q0 -98 -53.5 -171t-147.5 -116q133 -59 187.5 -134t54.5 -188q0 -168 -106.5 -268t-311.5 -100 q-109 0 -189.5 26.5t-134 73.5t-81 110.5t-27.5 137.5zM297 367q0 -78 43 -127.5t137 -49.5q74 0 120 38t46 122q0 72 -44 127t-144 94q-96 -49 -127 -98t-31 -106zM330 946q0 -66 42.5 -108t108.5 -62q72 27 100.5 68t28.5 98q0 59 -32.5 99t-104.5 40t-107.5 -37.5 t-35.5 -97.5z" />
<glyph unicode="9" horiz-adv-x="942" d="M41 872q0 186 99.5 299t312.5 113q111 0 190.5 -33.5t132.5 -106.5t79 -188.5t26 -279.5q0 -160 -26 -288t-80 -218t-141 -138t-210 -48q-158 0 -243 66.5t-124 168.5l217 117q35 -137 156 -137q98 0 147.5 83t51.5 218q-16 -10 -68.5 -27.5t-130.5 -17.5 q-180 0 -284.5 108.5t-104.5 308.5zM287 872q0 -109 49 -154.5t151 -45.5q53 0 89 12t59 25v53q0 147 -42 226t-144 79q-74 0 -118 -45t-44 -150z" />
<glyph unicode=":" horiz-adv-x="446" d="M76 129q0 63 41 105t106 42q66 0 108 -44t42 -103q0 -61 -42 -103t-108 -42t-106.5 41t-40.5 104zM76 766q0 63 41 105t106 42q66 0 108 -44t42 -103q0 -61 -42 -103t-108 -42t-106.5 41t-40.5 104z" />
<glyph unicode=";" horiz-adv-x="446" d="M25 -207l81 424h248l-118 -424h-211zM76 766q0 63 41 105t106 42q66 0 108 -44t42 -103q0 -61 -42 -103t-108 -42t-106.5 41t-40.5 104z" />
<glyph unicode="&#x3c;" d="M84 436v197l772 334v-207l-549 -225l549 -226v-207z" />
<glyph unicode="=" d="M63 248v196h816v-196h-816zM63 625v196h816v-196h-816z" />
<glyph unicode="&#x3e;" d="M84 102v207l549 226l-549 225v207l772 -334v-197z" />
<glyph unicode="?" horiz-adv-x="804" d="M20 1147q14 35 44 74t78 72.5t114 55t154 21.5q170 0 272 -88t102 -254q0 -113 -43 -191.5t-98 -146t-106.5 -137.5t-67.5 -164h-223q4 86 26.5 148.5t53 112.5t64.5 90t63.5 79t48 81t18.5 95q0 63 -31.5 103.5t-103.5 40.5q-39 0 -65.5 -11.5t-45 -28t-30 -36 t-19.5 -35.5zM203 129q0 63 41 105t106 42q66 0 108 -44t42 -103q0 -61 -42 -103t-108 -42t-106.5 41t-40.5 104z" />
<glyph unicode="@" horiz-adv-x="1734" d="M92 489q0 203 49 365t149.5 275.5t254 175t362.5 61.5q188 0 328.5 -50t233 -142.5t138.5 -224.5t46 -296q0 -332 -169 -502.5t-521 -170.5q-238 0 -351.5 76.5t-113.5 213.5q0 160 135 240t379 96v43q0 29 -2 53.5t-14.5 43t-36 29.5t-66.5 11q-125 0 -182 -106 l-187 111q18 35 52 68.5t82.5 59t110.5 42t138 16.5q90 0 153.5 -21.5t103.5 -59.5t57.5 -89t17.5 -109v-489q94 37 137 143.5t43 278.5q0 262 -119.5 392t-384.5 130q-164 0 -277.5 -46t-183 -132t-100 -208t-30.5 -273q0 -342 146 -503t450 -161q96 0 177 14.5t126 36.5 v-225q-25 -12 -60 -21.5t-74.5 -15.5t-83.5 -8t-85 -2q-410 0 -619 229.5t-209 650.5zM733 281q0 -53 53.5 -80t176.5 -27h24t25 2v250q-90 -6 -144.5 -20.5t-84 -34t-40 -43t-10.5 -47.5z" />
<glyph unicode="A" horiz-adv-x="1185" d="M41 0l313 1311q29 16 86.5 36.5t149.5 20.5q80 0 132 -19.5t89 -63.5t62.5 -114.5t48.5 -173.5l223 -997h-264l-84 379h-414l-86 -379h-256zM434 602h314l-60 272q-18 88 -31.5 139.5t-23.5 78t-21.5 34t-27.5 7.5q-23 0 -31 -9z" />
<glyph unicode="B" horiz-adv-x="1073" d="M129 45v1260q23 12 60.5 24t86 21.5t103.5 14.5t110 5q129 0 218.5 -27.5t146.5 -75.5t83 -115t26 -144q0 -72 -19.5 -122t-51.5 -85t-71 -56.5t-76 -31.5q41 -10 89.5 -30.5t89.5 -58.5t67.5 -95.5t26.5 -143.5q0 -121 -45 -198.5t-118 -125t-166 -66t-189 -18.5 q-147 0 -241.5 24t-129.5 44zM389 213q8 -6 36 -9t69 -3q127 0 189 45t62 145q0 98 -62 148.5t-226 50.5h-68v-377zM389 805h55q145 0 200.5 46t55.5 134q0 37 -9 66.5t-32.5 51t-64.5 34t-107 12.5q-29 0 -58.5 -2t-39.5 -6v-336z" />
<glyph unicode="C" horiz-adv-x="1071" d="M88 659q0 143 20.5 272.5t78 226.5t160 154.5t267.5 57.5q102 0 174 -25.5t121 -64.5t78 -85t45 -89l-225 -115q-10 23 -24.5 48.5t-39 48t-59.5 37t-84 14.5q-137 0 -191.5 -110.5t-54.5 -352.5q0 -244 66.5 -354.5t226.5 -110.5q104 0 167 36t97 70l125 -206 q-18 -18 -52 -42t-83 -43.5t-115.5 -34t-152.5 -14.5q-168 0 -274.5 54.5t-166 147.5t-82 217t-22.5 263z" />
<glyph unicode="D" horiz-adv-x="1202" d="M129 47v1247q27 14 72 27.5t103 25t124 17.5t131 6q154 0 259.5 -44t171 -129t95 -208t29.5 -282q0 -221 -35 -362.5t-107.5 -222.5t-183 -113t-262.5 -32q-80 0 -149.5 8.5t-121.5 20.5t-85 23.5t-41 17.5zM389 233q29 -14 74 -19t98 -5q80 0 134.5 21.5t88 76.5 t48 152.5t14.5 249.5q0 217 -58.5 323.5t-214.5 106.5q-55 0 -105 -6.5t-79 -16.5v-883z" />
<glyph unicode="E" horiz-adv-x="1013" d="M123 0v1348h788v-224h-528v-303h444v-227h-444v-371h549v-223h-809z" />
<glyph unicode="F" horiz-adv-x="956" d="M129 0v1348h789v-224h-529v-331h418v-228h-418v-565h-260z" />
<glyph unicode="G" horiz-adv-x="1148" d="M88 659q0 147 22.5 276.5t82 225.5t166 152.5t274.5 56.5q104 0 181 -26.5t129 -68.5t82 -90t44 -91l-229 -101q-12 25 -28.5 51.5t-43.5 47t-66.5 34t-97.5 13.5q-133 0 -191.5 -105.5t-58.5 -357.5q0 -127 14.5 -215t48.5 -145.5t90 -83t140 -25.5q53 0 88 5t60 13v295 h-211v223h465v-655q-57 -43 -155.5 -77t-254.5 -34q-168 0 -275.5 51.5t-169 142.5t-84 216t-22.5 272z" />
<glyph unicode="H" horiz-adv-x="1273" d="M129 0v1348h260v-523h500v523h256v-1348h-256v596h-500v-596h-260z" />
<glyph unicode="I" horiz-adv-x="538" d="M139 0v1348h260v-1348h-260z" />
<glyph unicode="J" horiz-adv-x="817" d="M14 150l211 141q10 -18 36 -50t79 -32q88 0 88 100v1039h260v-1035q0 -104 -29.5 -169.5t-79 -102.5t-111.5 -50.5t-126 -13.5q-76 0 -131 17.5t-94 44.5t-63.5 56.5t-39.5 54.5z" />
<glyph unicode="K" horiz-adv-x="1114" d="M129 0v1348h260v-586l414 586h313l-414 -588l412 -760h-285l-286 532l-154 -217v-315h-260z" />
<glyph unicode="L" horiz-adv-x="942" d="M119 0v1348h260v-1125h526v-223h-786z" />
<glyph unicode="M" horiz-adv-x="1558" d="M129 0v1348h352l156 -490q82 -256 114.5 -402.5t36.5 -160.5q2 8 32 154.5t116 414.5l158 484h336v-1348h-248v389q0 287 5 433.5t7 154.5q-2 -6 -11 -43t-25.5 -99.5t-41 -146.5t-55.5 -182l-164 -506h-235l-164 508q-31 92 -54.5 173t-41 142.5t-27.5 100.5t-13 51 q0 -14 7 -159.5t8 -426.5v-389h-248z" />
<glyph unicode="N" horiz-adv-x="1304" d="M129 0v1348h291l295 -523q55 -96 96 -178t70.5 -142.5t45 -96t17.5 -41.5q-2 14 -9 151t-7 393v437h248v-1348h-275l-303 535q-117 205 -174 330.5t-62 138.5q2 -18 8.5 -146.5t6.5 -392.5v-465h-248z" />
<glyph unicode="O" horiz-adv-x="1259" d="M88 668q0 162 23.5 292t85 221t168 140t272.5 49q158 0 261 -46t163.5 -133t85 -216t24.5 -295q0 -164 -23.5 -295t-85 -221t-167.5 -138.5t-272 -48.5q-158 0 -261.5 46.5t-164 134.5t-85 216t-24.5 294zM354 672q0 -135 14.5 -224.5t46 -142.5t84 -74.5t128.5 -21.5 q82 0 135 23.5t85 79t45 146.5t13 226q0 125 -12 211t-43 140.5t-83 79t-134 24.5q-80 0 -134.5 -24.5t-86 -80t-45 -144.5t-13.5 -218z" />
<glyph unicode="P" horiz-adv-x="1050" d="M129 0v1300q59 33 164.5 51.5t208.5 18.5q258 0 375.5 -125t117.5 -348q0 -139 -34.5 -236.5t-97 -159t-149.5 -89t-190 -27.5q-37 0 -74.5 3t-60.5 9v-397h-260zM389 625q2 -4 15.5 -6.5t30 -3.5t34.5 -2t33 -1q57 0 100 12.5t71.5 41t43 79t14.5 123.5q0 80 -13 132.5 t-42 83t-72 43t-104 12.5q-86 0 -111 -11v-503z" />
<glyph unicode="Q" horiz-adv-x="1259" d="M88 668q0 162 23.5 292t85 221t168 140t272.5 49q158 0 261 -46t163.5 -133t85 -216t24.5 -295q0 -133 -14 -241.5t-51 -193.5t-99.5 -144.5t-158.5 -92.5q47 -49 104.5 -59t151.5 -10q25 0 47.5 5t34.5 11l51 -221q-16 -10 -51 -16.5t-80 -6.5q-98 0 -177 20.5 t-144.5 56.5t-121 85t-106.5 109q-139 6 -229 56t-143.5 139t-75 213t-21.5 278zM354 672q0 -135 14.5 -224.5t46 -142.5t84 -74.5t128.5 -21.5q82 0 135 23.5t85 79t45 146.5t13 226q0 125 -12 211t-43 140.5t-83 79t-134 24.5q-80 0 -134.5 -24.5t-86 -80t-45 -144.5 t-13.5 -218z" />
<glyph unicode="R" horiz-adv-x="1101" d="M129 0v1300q61 33 167.5 51.5t223.5 18.5q242 0 365 -115.5t123 -316.5q0 -147 -59.5 -246.5t-168.5 -152.5l285 -539h-287l-250 481h-47q-18 0 -50 2t-42 4v-487h-260zM389 707q16 -4 47 -4.5t60 -0.5q53 0 98 11.5t76.5 36t50 64.5t18.5 99q0 127 -54 176.5t-173 49.5 h-32.5t-37 -1t-33 -3t-20.5 -5v-423z" />
<glyph unicode="S" horiz-adv-x="1005" d="M33 238l200 147q10 -23 29 -52.5t50.5 -57t77.5 -47t112 -19.5q53 0 88 14.5t55.5 37t28.5 50t8 56.5q0 66 -44 104.5t-109.5 68t-141.5 59.5t-141.5 77t-109.5 120.5t-44 190.5q0 90 32 161t89 120t137 75.5t176 26.5q90 0 160 -20.5t121 -53t85 -74.5t52 -87l-201 -131 q-12 23 -31.5 47t-47 43.5t-66.5 32t-90 12.5q-88 0 -125 -43t-37 -92q0 -61 44 -98.5t110.5 -66t143.5 -59t143.5 -80t110.5 -126t44 -195.5q0 -106 -37 -182t-98.5 -125t-139 -72t-159.5 -23q-104 0 -184 23t-138.5 59.5t-95.5 82.5t-57 96z" />
<glyph unicode="T" horiz-adv-x="962" d="M27 1124v224h907v-224h-322v-1124h-260v1124h-325z" />
<glyph unicode="U" horiz-adv-x="1214" d="M129 471v877h260v-834q0 -102 16.5 -162.5t51.5 -92.5t88 -41t125 -9q14 0 35.5 2t44 5t44 7t33.5 8v1117h258v-1270q-59 -39 -175.5 -70t-280.5 -31q-147 0 -243.5 30t-153 91.5t-80 153.5t-23.5 219z" />
<glyph unicode="V" horiz-adv-x="1193" d="M33 1348h286l164 -615q27 -102 49.5 -192t39 -158t25.5 -109t11 -49q0 4 9.5 44t25.5 107.5t37.5 159t50.5 195.5l164 617h268l-399 -1348h-334z" />
<glyph unicode="W" horiz-adv-x="1849" d="M53 1348h285l121 -600q18 -96 34.5 -184.5t27.5 -157t17.5 -112.5t8.5 -52q0 4 8 46t21.5 111.5t32 158.5t40.5 185l142 605h288l142 -603q20 -94 38.5 -182t32 -156.5t21.5 -112.5t10 -52q0 4 7 46t18.5 111.5t27 158.5t35.5 187l121 603h266l-315 -1348h-334l-105 418 q-29 117 -50 214t-36.5 169.5t-22.5 119t-9 58.5q-4 -27 -34 -173.5t-87 -381.5l-105 -424h-333z" />
<glyph unicode="X" horiz-adv-x="1175" d="M20 0l400 700l-365 648h291l246 -459l237 459h287l-366 -643l405 -705h-295l-276 508l-275 -508h-289z" />
<glyph unicode="Y" horiz-adv-x="1073" d="M10 1348h285l248 -619l245 619h275l-397 -910v-438h-258v438z" />
<glyph unicode="Z" horiz-adv-x="1054" d="M72 0v203l614 921h-610v224h917v-203l-616 -922h616v-223h-921z" />
<glyph unicode="[" horiz-adv-x="598" d="M143 -414v1811h404v-164h-174v-1483h174v-164h-404z" />
<glyph unicode="\" horiz-adv-x="827" d="M10 1407h242l565 -1487h-242z" />
<glyph unicode="]" horiz-adv-x="598" d="M51 -250h174v1483h-174v164h404v-1811h-404v164z" />
<glyph unicode="^" d="M63 625l343 723h126l347 -723h-203l-205 458l-205 -458h-203z" />
<glyph unicode="_" horiz-adv-x="1024" d="M-10 -113h1044v-200h-1044v200z" />
<glyph unicode="`" horiz-adv-x="655" d="M104 1393h295l152 -291h-213z" />
<glyph unicode="a" horiz-adv-x="925" d="M68 262q0 150 124.5 241t395.5 109v74q0 74 -36 95.5t-83 21.5q-68 0 -111 -32t-69 -81l-195 117q14 31 46 64.5t80 63.5t113.5 48t151.5 18q178 0 260 -77.5t82 -214.5v-633q-59 -45 -164.5 -72t-228.5 -27q-166 0 -266 67t-100 218zM315 274q0 -49 35 -76.5t113 -27.5 q31 0 65.5 5t59.5 18v229q-43 -4 -90 -11.5t-88 -22.5t-68 -42t-27 -72z" />
<glyph unicode="b" horiz-adv-x="970" d="M106 61v1303h240v-383q23 6 65 13t95 7q111 0 187.5 -33.5t124.5 -97t69.5 -154.5t21.5 -206q0 -158 -36.5 -260.5t-99 -161.5t-144.5 -82.5t-174 -23.5q-137 0 -229.5 28.5t-119.5 50.5zM346 197q14 -8 43 -11.5t49 -3.5q53 0 95 14.5t70 51.5t42 99.5t14 158.5 q0 145 -45 220t-168 75q-20 0 -50.5 -3t-49.5 -14v-587z" />
<glyph unicode="c" horiz-adv-x="849" d="M57 487q0 117 23.5 211.5t75 162t131.5 104t190 36.5q150 0 235 -60t113 -159l-202 -96q-16 47 -48 80t-98 33q-92 0 -132 -76t-40 -229q0 -154 46 -232t157 -78q70 0 115 26t79 60l117 -174q-16 -16 -45 -36.5t-69.5 -39t-96 -31t-127.5 -12.5q-221 0 -322.5 133.5 t-101.5 376.5z" />
<glyph unicode="d" horiz-adv-x="968" d="M61 481q0 250 103.5 385t339.5 135q27 0 65.5 -3t53.5 -7v373h239v-1282q-14 -10 -44 -26.5t-76 -32t-110.5 -27.5t-146.5 -12q-90 0 -167.5 23.5t-135 79.5t-89.5 152.5t-32 241.5zM309 492q0 -98 14.5 -158t41 -93.5t64.5 -45t87 -11.5q27 0 57.5 4.5t49.5 18.5v581 q-16 6 -38 9.5t-57 3.5q-119 0 -169 -72t-50 -237z" />
<glyph unicode="e" horiz-adv-x="919" d="M61 475q0 106 20.5 201.5t70 167t130 114.5t203.5 43q102 0 173 -29.5t115 -81.5t63.5 -121t19.5 -146q0 -78 -8 -139.5t-12 -86.5h-527q2 -121 58.5 -167t146.5 -46q76 0 133.5 26t93.5 64l113 -182q-53 -53 -145.5 -84t-214.5 -31q-115 0 -197 34t-134 98.5t-77 156.5 t-25 209zM309 575h309q4 12 5.5 33t1.5 37q0 86 -36 122t-108 36q-80 0 -123 -49t-49 -179z" />
<glyph unicode="f" horiz-adv-x="681" d="M33 791v188h145v53q0 180 84 267t246 87q61 0 105 -11t74 -25.5t46.5 -29.5t24.5 -24l-115 -161q-10 14 -41 29.5t-72 15.5q-59 0 -85.5 -32t-26.5 -106v-63h246v-188h-246v-791h-240v791h-145z" />
<glyph unicode="g" horiz-adv-x="952" d="M61 502q0 117 25 209t80 156.5t145 99t224 34.5q98 0 183 -16t132 -41v-962q0 -113 -34 -182.5t-89 -107.5t-122.5 -51.5t-135.5 -13.5q-74 0 -133.5 14.5t-102.5 37t-71.5 52t-42.5 58.5l164 137q23 -37 69.5 -67.5t118.5 -30.5q84 0 111.5 44t27.5 122v51 q-14 -6 -48 -11t-83 -5q-223 0 -320.5 120.5t-97.5 352.5zM309 506q0 -147 46 -211t157 -64q23 0 52.5 4.5t45.5 14.5v538q-14 4 -37.5 8.5t-54.5 4.5q-106 0 -157.5 -66.5t-51.5 -228.5z" />
<glyph unicode="h" horiz-adv-x="983" d="M106 0v1364h240v-381q18 4 63.5 11t116.5 7q109 0 179.5 -29.5t110.5 -85t55.5 -133t15.5 -175.5v-578h-240v578q0 72 -10 115.5t-31.5 67t-55.5 32t-79 8.5q-31 0 -66.5 -3t-58.5 -14v-784h-240z" />
<glyph unicode="i" horiz-adv-x="475" d="M90 1243q0 59 43 100t103 41q61 0 104 -40.5t43 -100.5q0 -59 -43 -99t-104 -40q-59 0 -102.5 40t-43.5 99zM117 0v979h239v-979h-239z" />
<glyph unicode="j" horiz-adv-x="489" d="M-184 -266l127 160q6 -6 14 -16.5t22.5 -21t32 -18.5t41.5 -8q35 0 56.5 20.5t21.5 81.5v1047h240v-1038q0 -92 -24.5 -153.5t-66.5 -96.5t-95.5 -49.5t-108.5 -14.5q-63 0 -108.5 12.5t-77 29t-49 34.5t-25.5 31zM104 1243q0 59 43 100t103 41q61 0 104 -40.5t43 -100.5 q0 -59 -43 -99t-104 -40q-59 0 -102.5 40t-43.5 99z" />
<glyph unicode="k" horiz-adv-x="944" d="M106 0v1364h240v-748q39 47 84 103.5t86 108t76 92.5t53 59h311l-331 -401l305 -578h-271l-198 377l-115 -139v-238h-240z" />
<glyph unicode="l" horiz-adv-x="520" d="M106 252v1112h240v-1057q0 -51 12.5 -82.5t79.5 -31.5h17.5t23.5 2l10 -197q-10 -4 -41.5 -7t-66.5 -3q-61 0 -111.5 11t-86.5 40t-56.5 81t-20.5 132z" />
<glyph unicode="m" horiz-adv-x="1404" d="M106 0v940q45 14 111 26.5t140.5 19.5t154.5 11t156 4q195 0 318.5 -17t195 -63.5t98.5 -126t27 -204.5v-590h-240v557q0 74 -8 120t-34 71.5t-73 36t-123 14.5v-799h-239v799q-25 0 -57.5 -1t-67.5 -3t-66.5 -5.5t-52.5 -7.5v-782h-240z" />
<glyph unicode="n" horiz-adv-x="985" d="M106 0v934q59 29 161 48t220 19q115 0 192 -25.5t123 -75.5t65.5 -122.5t19.5 -165.5v-612h-240v526q0 63 -4 113.5t-20.5 86.5t-53.5 54.5t-100 18.5q-35 0 -69.5 -4t-53.5 -11v-784h-240z" />
<glyph unicode="o" horiz-adv-x="980" d="M61 475q0 125 22.5 222.5t74 165t135.5 103t207 35.5q119 0 199.5 -32.5t130 -96t70 -156.5t20.5 -212q0 -121 -21.5 -218.5t-72 -166t-135.5 -105.5t-212 -37q-119 0 -198.5 33t-129 96.5t-70 156.5t-20.5 212zM309 477q0 -78 7.5 -134t25.5 -93t52 -54.5t89 -17.5 q106 0 147.5 77t41.5 259q0 150 -34 218.5t-140 68.5q-55 0 -92 -17.5t-58.5 -56.5t-30 -100.5t-8.5 -149.5z" />
<glyph unicode="p" horiz-adv-x="968" d="M106 -379v1311q33 18 76 31.5t90 21.5t95.5 12t89.5 4q129 0 215 -33.5t139 -96t75.5 -150.5t22.5 -199q0 -154 -31.5 -256t-90 -163.5t-140.5 -88t-182 -26.5q-39 0 -71 3t-48 5v-375h-240zM346 201q31 -10 96 -11q117 0 167 76t50 250q0 147 -48 216t-165 69 q-35 0 -60.5 -3t-39.5 -10v-587z" />
<glyph unicode="q" horiz-adv-x="968" d="M61 471q0 123 25 220t81 167t147.5 106.5t224.5 36.5q27 0 69.5 -2t88.5 -8t91.5 -16t73.5 -27v-1327h-239v371q-57 -10 -127 -10q-123 0 -206 32.5t-134.5 96t-73 154.5t-21.5 206zM309 475q0 -88 12.5 -144.5t38 -89t64.5 -45t94 -12.5q23 0 52.5 2t52.5 13v594 q-16 4 -36 6t-50 2q-61 0 -104.5 -16.5t-71 -54.5t-40 -100.5t-12.5 -154.5z" />
<glyph unicode="r" horiz-adv-x="720" d="M109 0v928q25 14 62.5 27.5t80.5 23.5t88 16t84 6q111 0 182.5 -35.5t114.5 -113.5l-189 -107q-10 16 -32.5 36t-73.5 20q-49 0 -78 -15v-786h-239z" />
<glyph unicode="s" horiz-adv-x="831" d="M29 172l172 129q27 -51 78 -87t131 -36q66 0 95.5 24.5t29.5 67.5q0 41 -35 63.5t-87.5 40t-112.5 37t-112.5 53.5t-87 88t-34.5 144q0 145 99 225t259 80q76 0 135 -15t102.5 -40.5t71 -57.5t41.5 -65l-178 -116q-23 45 -66 70.5t-112 25.5q-121 0 -121 -90 q0 -41 36 -64.5t88 -42t114.5 -39t114.5 -54.5t88 -86t36 -136q0 -88 -31.5 -148.5t-83 -97.5t-117 -52.5t-132.5 -15.5q-160 0 -251 56.5t-130 138.5z" />
<glyph unicode="t" horiz-adv-x="704" d="M31 791v188h141v254h240v-254h231v-188h-231v-463q0 -66 16 -103t74 -37q31 0 60.5 12.5t51.5 35.5l91 -179q-33 -29 -97.5 -53t-163.5 -24q-139 0 -205.5 66.5t-66.5 221.5v523h-141z" />
<glyph unicode="u" horiz-adv-x="976" d="M98 406v573h240v-541q0 -59 4 -105t21.5 -78t53.5 -49.5t99 -17.5q33 0 65.5 7.5t49.5 17.5v766h239v-907q-57 -41 -154.5 -66.5t-207.5 -25.5q-127 0 -206 27.5t-125 81.5t-62.5 133t-16.5 184z" />
<glyph unicode="v" horiz-adv-x="964" d="M20 979h271l86 -315q25 -90 45 -171t35.5 -143.5t25 -102.5t11.5 -48q2 8 10 47t23.5 100.5t36 142t44.5 173.5l86 317h250l-301 -979h-324z" />
<glyph unicode="w" horiz-adv-x="1396" d="M41 979h272l62 -315q12 -72 23.5 -137.5t19.5 -118t13 -87t7 -40.5q2 6 8.5 40.5t16.5 87t24.5 118t32.5 135.5l78 317h233l76 -317q14 -66 27.5 -129.5t24 -114.5t17.5 -87t9 -48q0 10 5 46t13.5 87t19.5 114.5t26 131.5l63 317h244l-226 -979h-286l-37 162 q-20 92 -38.5 173t-33 144.5t-24 106.5t-11.5 57q-2 -14 -11 -56t-23.5 -104.5t-34 -143.5t-41.5 -175l-41 -164h-283z" />
<glyph unicode="x" horiz-adv-x="917" d="M10 0l293 506l-276 473h278l166 -307l160 307h268l-283 -473l291 -506h-278l-178 334l-175 -334h-266z" />
<glyph unicode="y" horiz-adv-x="952" d="M31 979h260l129 -492q18 -68 33.5 -114.5t29.5 -69.5l201 676h248l-348 -1067q-29 -90 -65 -145.5t-78 -87t-89 -43t-98 -11.5q-92 0 -141.5 22.5t-71.5 45.5l100 182q16 -14 44 -29.5t65 -15.5q47 0 74.5 33t50.5 108l14 52q-49 37 -92 114.5t-84 212.5z" />
<glyph unicode="z" horiz-adv-x="856" d="M61 0v174l428 610h-413v195h715v-174l-429 -610h433v-195h-734z" />
<glyph unicode="{" horiz-adv-x="638" d="M61 385v170q49 12 79 36.5t44.5 58.5t18.5 77t4 96v178q0 100 21.5 175t69.5 122.5t127 71t193 23.5v-172q-70 0 -107.5 -18.5t-55 -55.5t-20.5 -90t-3 -123v-113q0 -61 -6 -115.5t-23.5 -99.5t-51.5 -79.5t-89 -55.5q55 -23 89 -57.5t51.5 -79.5t23.5 -99.5t6 -115.5 v-113q0 -68 3 -121t20.5 -90t55.5 -55.5t107 -18.5v-172q-115 0 -193.5 24t-126.5 71t-69.5 120.5t-21.5 176.5v178q0 51 -4 94t-18.5 77t-44 58.5t-79.5 36.5z" />
<glyph unicode="|" horiz-adv-x="729" d="M250 -365v1932h229v-1932h-229z" />
<glyph unicode="}" horiz-adv-x="638" d="M20 -279q70 0 108 18.5t55.5 55.5t20.5 90.5t3 120.5v113q0 61 6 115.5t23.5 99.5t51.5 80t89 57q-55 20 -89 55t-51.5 80t-23.5 99.5t-6 115.5v113q0 70 -3 123t-20.5 90t-55.5 55.5t-108 18.5v172q115 0 194 -23.5t127 -71t69.5 -122t21.5 -175.5v-178q0 -53 4 -96 t18.5 -77t44 -58.5t79.5 -36.5v-170q-49 -12 -79 -36.5t-44.5 -58.5t-18.5 -77t-4 -94v-178q0 -102 -21.5 -176t-69.5 -121t-127 -71t-194 -24v172z" />
<glyph unicode="~" horiz-adv-x="958" d="M31 725l162 102q6 -12 15 -28.5t23.5 -30.5t36 -24.5t54.5 -10.5q45 0 84.5 12.5t80.5 26.5t86 26.5t99 12.5q94 0 148 -52t89 -130l-151 -94q-18 39 -46 63.5t-83 24.5q-39 0 -78 -12.5t-82 -27t-91 -26.5t-104 -12q-70 0 -133 38t-110 142z" />
<glyph unicode="&#xa1;" horiz-adv-x="505" d="M104 856q0 61 42 103t108 42t106.5 -41t40.5 -104t-41 -105t-106 -42q-66 0 -108 44t-42 103zM106 -231q0 84 12.5 301t28.5 528h209q14 -311 26.5 -529.5t12.5 -299.5q0 -68 -36.5 -111t-106.5 -43q-72 0 -109 43t-37 111z" />
<glyph unicode="&#xa2;" d="M84 487q0 104 20.5 192.5t64.5 155t113.5 107.5t166.5 53v150h147v-148q123 -12 193.5 -70.5t103.5 -144.5l-199 -98q-12 35 -34.5 63.5t-63.5 43.5v-607q59 8 101 33t75 53l119 -172q-35 -31 -105.5 -69.5t-189.5 -48.5v-168h-147v172q-193 23 -279 151.5t-86 351.5z M332 494q0 -117 26.5 -191t90.5 -102v585q-61 -25 -89 -94t-28 -198z" />
<glyph unicode="&#xa3;" d="M45 172q16 6 36.5 16.5t38 26.5t30 43t12.5 68v247h-113v162h113v133q0 225 98 320.5t285 95.5q113 0 199.5 -44t134.5 -136l-193 -125q-14 27 -47 57.5t-100 30.5q-35 0 -61.5 -9t-43 -33t-25 -64.5t-8.5 -104.5v-121h287v-162h-287v-243q0 -72 -26 -117l2 -2 q23 6 47.5 11t64.5 5q37 0 65 -4t51.5 -10t47 -10t54.5 -4q70 0 104 59l121 -168q-16 -39 -55 -70.5t-129 -31.5q-39 0 -75 5t-73 12t-79 12.5t-93 5.5q-45 0 -99.5 -6.5t-103.5 -14.5q-57 -8 -116 -18z" />
<glyph unicode="&#xa5;" d="M6 1266h270l201 -432l191 432h266l-262 -541h207v-164h-287v-98h287v-164h-287v-299h-248v299h-281v164h281v98h-281v164h201z" />
<glyph unicode="&#xa7;" horiz-adv-x="1044" d="M82 516q0 109 41 182.5t106 120.5q-33 41 -51 93.5t-18 123.5q0 158 106.5 246t294.5 88q82 0 146.5 -18.5t110.5 -48t77 -68.5t49 -80l-190 -119q-12 20 -29.5 42t-42.5 39.5t-57.5 28.5t-75.5 11q-84 0 -112.5 -37t-28.5 -80q0 -53 40.5 -84.5t102 -58.5t134.5 -53.5 t134.5 -69.5t102.5 -108.5t41 -169.5q0 -109 -41 -182.5t-107 -123.5q33 -39 51.5 -91t18.5 -124q0 -158 -106.5 -245.5t-295.5 -87.5q-84 0 -147.5 18t-109.5 48t-76.5 69t-49.5 80l191 118q12 -20 29.5 -41.5t42 -39t57.5 -28.5t76 -11q84 0 112.5 36.5t28.5 79.5 q0 53 -41 85t-102.5 58.5t-134 53.5t-134 70t-102.5 108.5t-41 169.5zM330 524q0 -43 24.5 -72.5t65.5 -51t92 -40t104 -38.5q41 23 70 62.5t29 102.5q0 43 -24.5 72t-64.5 50.5t-91.5 39t-104.5 39.5q-41 -23 -70.5 -63.5t-29.5 -100.5z" />
<glyph unicode="&#xa8;" horiz-adv-x="876" d="M104 1227q0 59 39 98t99 39q59 0 100 -39t41 -98t-41 -96t-100 -37t-98.5 37t-39.5 96zM494 1227q0 59 37.5 98t99.5 39q59 0 100 -39t41 -98t-41 -96t-100 -37q-61 0 -99 37t-38 96z" />
<glyph unicode="&#xa9;" horiz-adv-x="1509" d="M74 668q0 162 44 292t130 222t215 141t299 49q330 0 502 -181t172 -511q0 -164 -44 -294t-130 -221t-215.5 -139.5t-301.5 -48.5q-330 0 -500.5 180.5t-170.5 510.5zM258 672q0 -147 37 -248.5t101.5 -164t154.5 -89.5t199 -27q115 0 207 30t157.5 94.5t101 167 t35.5 249.5q0 137 -34.5 235.5t-99 162t-156 93t-205.5 29.5q-113 0 -205 -29.5t-156.5 -94t-100.5 -166t-36 -242.5zM385 680q0 94 23.5 172t70.5 133t117 86t164 31q133 0 207.5 -56.5t97.5 -138.5l-178 -76q-14 41 -43 67t-84 26q-74 0 -115 -59.5t-41 -178.5t46 -182.5 t138 -63.5q59 0 98.5 21.5t65.5 46.5l105 -152q-14 -14 -39 -31.5t-60.5 -33t-83 -26.5t-108.5 -11q-193 0 -287 113.5t-94 312.5z" />
<glyph unicode="&#xab;" horiz-adv-x="1118" d="M82 422v166l483 391v-252l-286 -221l286 -221v-254zM553 422v166l483 391v-252l-286 -221l286 -221v-254z" />
<glyph unicode="&#xad;" horiz-adv-x="659" d="M63 428v229h535v-229h-535z" />
<glyph unicode="&#xae;" horiz-adv-x="1128" d="M84 864q0 115 29.5 208t91 159.5t153 102.5t213.5 36q233 0 353 -130t120 -366q0 -231 -120.5 -366t-366.5 -135q-236 0 -354.5 128t-118.5 363zM213 868q0 -109 25.5 -181.5t71.5 -116.5t109.5 -63.5t141.5 -19.5q82 0 147.5 21.5t111.5 68t70.5 121t24.5 181.5 q0 201 -93 287.5t-255 86.5q-164 0 -259 -88t-95 -297zM375 602v541q27 12 77 19t103 7q115 0 170 -50t55 -136q0 -53 -22.5 -96t-69.5 -68l121 -217h-152l-98 189q-20 0 -34.5 1t-18.5 1v-191h-131zM506 899q16 -4 41 -4q41 0 67.5 17.5t26.5 68.5q0 47 -22.5 64.5 t-67.5 17.5q-12 0 -25.5 -1t-19.5 -5v-158z" />
<glyph unicode="&#xaf;" horiz-adv-x="815" d="M104 1135v198h607v-198h-607z" />
<glyph unicode="&#xb0;" horiz-adv-x="628" d="M61 1116q0 61 20.5 108.5t54.5 79t80 49t99 17.5q109 0 180.5 -65.5t71.5 -188.5q0 -121 -71.5 -188.5t-180.5 -67.5q-111 0 -182.5 67.5t-71.5 188.5zM213 1116q0 -47 22.5 -79.5t79.5 -32.5q53 0 77 32.5t24 79.5t-23.5 80t-77.5 33q-57 0 -79.5 -33t-22.5 -80z" />
<glyph unicode="&#xb1;" d="M63 18v197h816v-197h-816zM63 604v197h306v289h204v-289h306v-197h-306v-289h-204v289h-306z" />
<glyph unicode="&#xb4;" horiz-adv-x="655" d="M104 1102l154 291h293l-234 -291h-213z" />
<glyph unicode="&#xb6;" horiz-adv-x="1054" d="M63 891q0 109 27 193.5t85 143t151.5 89.5t226.5 31h397v-1713h-121v1600h-133v-1600h-121v799q-100 0 -192 21.5t-162.5 74t-114 140.5t-43.5 221z" />
<glyph unicode="&#xb7;" horiz-adv-x="446" d="M76 684q0 63 41 105t106 42q66 0 108 -44t42 -103q0 -61 -42 -103t-108 -42t-106.5 41t-40.5 104z" />
<glyph unicode="&#xb8;" horiz-adv-x="655" d="M104 -406l52 125q14 -14 44.5 -30.5t78.5 -16.5q78 0 77 64q0 45 -41 63.5t-133 18.5l62 190h159l-36 -108q29 -4 61.5 -14.5t60 -31t45 -52t17.5 -81.5q0 -86 -62.5 -138t-187.5 -52q-86 0 -135 23.5t-62 39.5z" />
<glyph unicode="&#xbb;" horiz-adv-x="1077" d="M61 31v254l287 221l-287 221v252l484 -391v-166zM532 31v254l287 221l-287 221v252l484 -391v-166z" />
<glyph unicode="&#xbc;" horiz-adv-x="1863" d="M102 1141q18 14 57.5 34.5t94.5 41t125 35t149 14.5v-613h166v-176h-540v176h163v389q-45 -18 -72.5 -30.5t-41.5 -16.5zM494 0l731 1266h221l-731 -1266h-221zM1073 160v155l258 457h322v-442h88v-170h-88v-160h-217v160h-363zM1284 330h152v264z" />
<glyph unicode="&#xbd;" horiz-adv-x="1908" d="M102 1141q18 12 60.5 34.5t99.5 44t126 35t140 11.5v-613h166v-176h-540v176h163v389q-45 -18 -72.5 -30.5t-41.5 -16.5zM479 0l731 1266h222l-732 -1266h-221zM1163 592q31 88 105.5 140t224.5 52q127 0 200.5 -66.5t73.5 -168.5q0 -39 -8 -78t-32.5 -78t-69.5 -79 t-119 -81l-98 -55h327v-176h-602v176l230 178q10 8 34.5 29t49 47.5t44 57t19.5 59.5q0 35 -27.5 47t-46.5 12q-29 0 -48 -13t-31.5 -30.5t-18.5 -34t-6 -22.5z" />
<glyph unicode="&#xbe;" horiz-adv-x="1845" d="M102 1094q35 84 110 131t202 47q59 0 112.5 -11.5t93 -36t63.5 -64.5t24 -97q0 -35 -13.5 -62.5t-35 -48t-49 -35t-54.5 -20.5q72 -16 122 -59t50 -123q0 -125 -89 -180.5t-228 -55.5q-72 0 -122 14.5t-86 38t-58.5 53t-39.5 58.5l187 98q6 -16 13 -32.5t21.5 -30.5 t37 -22.5t57.5 -8.5q41 0 63.5 20.5t22.5 53.5q0 41 -36 66.5t-128 25.5h-23v168h23q90 0 120 14.5t30 42.5q0 27 -18.5 46.5t-63.5 19.5q-47 0 -79 -16.5t-44 -69.5zM463 0l731 1266h221l-731 -1266h-221zM1055 160v155l258 457h321v-442h88v-170h-88v-160h-217v160h-362z M1266 330h151v264z" />
<glyph unicode="&#xbf;" horiz-adv-x="804" d="M20 -43q0 113 43 191.5t98.5 146t106.5 137.5t68 164h223q-6 -84 -27.5 -147.5t-52 -113.5t-64.5 -90t-63.5 -79t-48 -81t-18.5 -95q0 -63 31.5 -103.5t103.5 -40.5q39 0 65.5 11.5t45 28t29.5 36t20 35.5l204 -119q-14 -35 -43.5 -73.5t-78 -72.5t-114 -55.5 t-153.5 -21.5q-170 0 -272.5 88t-102.5 254zM305 856q0 61 42 103t108 42t106.5 -41t40.5 -104t-41 -105t-106 -42q-66 0 -108 44t-42 103z" />
<glyph unicode="&#xc0;" horiz-adv-x="1185" d="M41 0l313 1311q29 16 86.5 36.5t149.5 20.5q80 0 132 -19.5t89 -63.5t62.5 -114.5t48.5 -173.5l223 -997h-264l-84 379h-414l-86 -379h-256zM283 1665h252l147 -229h-182zM434 602h314l-60 272q-18 88 -31.5 139.5t-23.5 78t-21.5 34t-27.5 7.5q-23 0 -31 -9z" />
<glyph unicode="&#xc1;" horiz-adv-x="1185" d="M41 0l313 1311q29 16 86.5 36.5t149.5 20.5q80 0 132 -19.5t89 -63.5t62.5 -114.5t48.5 -173.5l223 -997h-264l-84 379h-414l-86 -379h-256zM434 602h314l-60 272q-18 88 -31.5 139.5t-23.5 78t-21.5 34t-27.5 7.5q-23 0 -31 -9zM489 1436l148 229h252l-217 -229h-183z " />
<glyph unicode="&#xc2;" horiz-adv-x="1185" d="M41 0l313 1311q29 16 86.5 36.5t149.5 20.5q80 0 132 -19.5t89 -63.5t62.5 -114.5t48.5 -173.5l223 -997h-264l-84 379h-414l-86 -379h-256zM324 1430l161 221h224l161 -221h-159l-115 118l-113 -118h-159zM434 602h314l-60 272q-18 88 -31.5 139.5t-23.5 78t-21.5 34 t-27.5 7.5q-23 0 -31 -9z" />
<glyph unicode="&#xc3;" horiz-adv-x="1185" d="M41 0l313 1311q29 16 86.5 36.5t149.5 20.5q80 0 132 -19.5t89 -63.5t62.5 -114.5t48.5 -173.5l223 -997h-264l-84 379h-414l-86 -379h-256zM276 1612l144 41q2 -10 6 -24.5t11 -28t18.5 -22.5t29.5 -9q20 0 44 12t49.5 27.5t57.5 29t69 13.5q41 0 71.5 -15.5t53 -42 t38 -59.5t23.5 -70l-143 -39q-6 23 -17.5 53.5t-44.5 30.5q-20 0 -45 -13t-52.5 -28.5t-59 -29t-68.5 -13.5q-78 0 -123 56.5t-62 130.5zM434 602h314l-60 272q-18 88 -31.5 139.5t-23.5 78t-21.5 34t-27.5 7.5q-23 0 -31 -9z" />
<glyph unicode="&#xc4;" horiz-adv-x="1185" d="M41 0l313 1311q29 16 86.5 36.5t149.5 20.5q80 0 132 -19.5t89 -63.5t62.5 -114.5t48.5 -173.5l223 -997h-264l-84 379h-414l-86 -379h-256zM315 1542q0 51 34 85t83 34q53 0 87 -34t34 -85q0 -47 -34 -79.5t-87 -32.5q-49 0 -83 32.5t-34 79.5zM434 602h314l-60 272 q-18 88 -31.5 139.5t-23.5 78t-21.5 34t-27.5 7.5q-23 0 -31 -9zM647 1542q0 51 32 85t85 34q51 0 86 -34t35 -85q0 -47 -35 -79.5t-86 -32.5q-53 0 -85 32.5t-32 79.5z" />
<glyph unicode="&#xc5;" horiz-adv-x="1185" d="M41 0l313 1311q29 16 86.5 36.5t149.5 20.5q80 0 132 -19.5t89 -63.5t62.5 -114.5t48.5 -173.5l223 -997h-264l-84 379h-414l-86 -379h-256zM418 1587q0 78 50 122t120 44t120 -44t50 -122q0 -80 -50.5 -125t-119.5 -45q-70 0 -120 45t-50 125zM434 602h314l-60 272 q-18 88 -31.5 139.5t-23.5 78t-21.5 34t-27.5 7.5q-23 0 -31 -9zM522 1587q0 -31 16.5 -53.5t49.5 -22.5q31 0 48 21.5t17 54.5q0 29 -17.5 51.5t-47.5 22.5q-33 0 -49.5 -22.5t-16.5 -51.5z" />
<glyph unicode="&#xc6;" horiz-adv-x="1607" d="M20 0l383 1311q29 16 94.5 31.5t174.5 15.5q10 0 37.5 -1t58.5 -2t58.5 -3t37.5 -4h641v-224h-528v-303h444v-227h-444v-371h549v-223h-809v379h-334l-107 -379h-256zM446 602h271v533h-25q-29 0 -62.5 -3.5t-37.5 -7.5z" />
<glyph unicode="&#xc7;" horiz-adv-x="1071" d="M88 659q0 143 20.5 272.5t78 226.5t160 154.5t267.5 57.5q102 0 174 -25.5t121 -64.5t78 -85t45 -89l-225 -115q-10 23 -24.5 48.5t-39 48t-59.5 37t-84 14.5q-137 0 -191.5 -110.5t-54.5 -352.5q0 -244 66.5 -354.5t226.5 -110.5q104 0 167 36t97 70l125 -206 q-33 -31 -101.5 -70t-189.5 -55l5 -39q4 -72 -18.5 -117t-73 -71.5t-127 -36t-181.5 -9.5q0 70 2 100.5t13 45.5q12 16 34.5 21t67.5 5q27 0 39 -1t16 4.5t3 17.5t-1 39v41q-133 16 -218 75.5t-133 150.5t-66.5 205.5t-18.5 241.5z" />
<glyph unicode="&#xc8;" horiz-adv-x="1015" d="M123 0v1348h788v-224h-528v-303h444v-227h-444v-371h549v-223h-809zM223 1665h252l148 -229h-183z" />
<glyph unicode="&#xc9;" horiz-adv-x="1015" d="M123 0v1348h788v-224h-528v-303h444v-227h-444v-371h549v-223h-809zM424 1436l147 229h252l-217 -229h-182z" />
<glyph unicode="&#xca;" horiz-adv-x="1015" d="M123 0v1348h788v-224h-528v-303h444v-227h-444v-371h549v-223h-809zM248 1430l162 221h223l162 -221h-160l-115 118l-112 -118h-160z" />
<glyph unicode="&#xcb;" horiz-adv-x="1015" d="M123 0v1348h788v-224h-528v-303h444v-227h-444v-371h549v-223h-809zM236 1542q0 51 33.5 85t82.5 34q53 0 87 -34t34 -85q0 -47 -33.5 -79.5t-87.5 -32.5q-49 0 -82.5 32.5t-33.5 79.5zM567 1542q0 51 32 85t85 34q51 0 86 -34t35 -85q0 -47 -35 -79.5t-86 -32.5 q-53 0 -85 32.5t-32 79.5z" />
<glyph unicode="&#xcc;" horiz-adv-x="538" d="M-33 1665h252l148 -229h-183zM139 0v1348h260v-1348h-260z" />
<glyph unicode="&#xcd;" horiz-adv-x="538" d="M139 0v1348h260v-1348h-260zM172 1436l147 229h252l-217 -229h-182z" />
<glyph unicode="&#xce;" horiz-adv-x="538" d="M0 1430l162 221h223l162 -221h-160l-115 118l-112 -118h-160zM139 0v1348h260v-1348h-260z" />
<glyph unicode="&#xcf;" horiz-adv-x="538" d="M-12 1542q0 51 33.5 85t82.5 34q53 0 87 -34t34 -85q0 -47 -33.5 -79.5t-87.5 -32.5q-49 0 -82.5 32.5t-33.5 79.5zM139 0v1348h260v-1348h-260zM319 1542q0 51 32 85t85 34q51 0 86 -34t35 -85q0 -47 -35 -79.5t-86 -32.5q-53 0 -85 32.5t-32 79.5z" />
<glyph unicode="&#xd1;" horiz-adv-x="1269" d="M129 0v1348h291l295 -523q55 -96 96 -178t70.5 -142.5t45 -96t17.5 -41.5q-2 14 -9 151t-7 393v437h248v-1348h-275l-303 535q-117 205 -174 330.5t-62 138.5q2 -18 8.5 -146.5t6.5 -392.5v-465h-248zM365 1612l143 41q2 -10 6 -24.5t11 -28t18.5 -22.5t29.5 -9 q20 0 44 12t49.5 27.5t57.5 29t69 13.5q41 0 71.5 -15.5t53 -42t38 -59.5t23.5 -70l-143 -39q-6 23 -17.5 53.5t-44.5 30.5q-20 0 -44.5 -13t-52.5 -28.5t-59.5 -29t-68.5 -13.5q-78 0 -123 56.5t-61 130.5z" />
<glyph unicode="&#xd2;" horiz-adv-x="1259" d="M88 668q0 162 23.5 292t85 221t168 140t272.5 49q158 0 261 -46t163.5 -133t85 -216t24.5 -295q0 -164 -23.5 -295t-85 -221t-167.5 -138.5t-272 -48.5q-158 0 -261.5 46.5t-164 134.5t-85 216t-24.5 294zM354 672q0 -135 14.5 -224.5t46 -142.5t84 -74.5t128.5 -21.5 q82 0 135 23.5t85 79t45 146.5t13 226q0 125 -12 211t-43 140.5t-83 79t-134 24.5q-80 0 -134.5 -24.5t-86 -80t-45 -144.5t-13.5 -218zM354 1665h252l148 -229h-183z" />
<glyph unicode="&#xd3;" horiz-adv-x="1259" d="M88 668q0 162 23.5 292t85 221t168 140t272.5 49q158 0 261 -46t163.5 -133t85 -216t24.5 -295q0 -164 -23.5 -295t-85 -221t-167.5 -138.5t-272 -48.5q-158 0 -261.5 46.5t-164 134.5t-85 216t-24.5 294zM354 672q0 -135 14.5 -224.5t46 -142.5t84 -74.5t128.5 -21.5 q82 0 135 23.5t85 79t45 146.5t13 226q0 125 -12 211t-43 140.5t-83 79t-134 24.5q-80 0 -134.5 -24.5t-86 -80t-45 -144.5t-13.5 -218zM532 1436l148 229h252l-217 -229h-183z" />
<glyph unicode="&#xd4;" horiz-adv-x="1259" d="M88 668q0 162 23.5 292t85 221t168 140t272.5 49q158 0 261 -46t163.5 -133t85 -216t24.5 -295q0 -164 -23.5 -295t-85 -221t-167.5 -138.5t-272 -48.5q-158 0 -261.5 46.5t-164 134.5t-85 216t-24.5 294zM354 672q0 -135 14.5 -224.5t46 -142.5t84 -74.5t128.5 -21.5 q82 0 135 23.5t85 79t45 146.5t13 226q0 125 -12 211t-43 140.5t-83 79t-134 24.5q-80 0 -134.5 -24.5t-86 -80t-45 -144.5t-13.5 -218zM365 1430l161 221h224l161 -221h-159l-115 118l-113 -118h-159z" />
<glyph unicode="&#xd5;" horiz-adv-x="1259" d="M88 668q0 162 23.5 292t85 221t168 140t272.5 49q158 0 261 -46t163.5 -133t85 -216t24.5 -295q0 -164 -23.5 -295t-85 -221t-167.5 -138.5t-272 -48.5q-158 0 -261.5 46.5t-164 134.5t-85 216t-24.5 294zM328 1612l143 41q2 -10 6 -24.5t11.5 -28t18.5 -22.5t30 -9 q20 0 43.5 12t49 27.5t57.5 29t69 13.5q41 0 71.5 -15.5t53 -42t38 -59.5t23.5 -70l-143 -39q-6 23 -17.5 53.5t-44.5 30.5q-20 0 -44.5 -13t-52.5 -28.5t-59.5 -29t-68.5 -13.5q-78 0 -123 56.5t-61 130.5zM354 672q0 -135 14.5 -224.5t46 -142.5t84 -74.5t128.5 -21.5 q82 0 135 23.5t85 79t45 146.5t13 226q0 125 -12 211t-43 140.5t-83 79t-134 24.5q-80 0 -134.5 -24.5t-86 -80t-45 -144.5t-13.5 -218z" />
<glyph unicode="&#xd6;" horiz-adv-x="1259" d="M88 668q0 162 23.5 292t85 221t168 140t272.5 49q158 0 261 -46t163.5 -133t85 -216t24.5 -295q0 -164 -23.5 -295t-85 -221t-167.5 -138.5t-272 -48.5q-158 0 -261.5 46.5t-164 134.5t-85 216t-24.5 294zM350 1542q0 51 34 85t83 34q53 0 87 -34t34 -85q0 -47 -34 -79.5 t-87 -32.5q-49 0 -83 32.5t-34 79.5zM354 672q0 -135 14.5 -224.5t46 -142.5t84 -74.5t128.5 -21.5q82 0 135 23.5t85 79t45 146.5t13 226q0 125 -12 211t-43 140.5t-83 79t-134 24.5q-80 0 -134.5 -24.5t-86 -80t-45 -144.5t-13.5 -218zM682 1542q0 51 31.5 85t85.5 34 q51 0 86 -34t35 -85q0 -47 -35 -79.5t-86 -32.5q-53 0 -85 32.5t-32 79.5z" />
<glyph unicode="&#xd7;" d="M66 795l145 145l264 -262l258 258l139 -137l-260 -260l265 -263l-148 -147l-262 264l-260 -260l-137 139l258 258z" />
<glyph unicode="&#xd8;" horiz-adv-x="1259" d="M66 63l102 142q-45 86 -62.5 201.5t-17.5 261.5q0 162 23.5 292t85 221t168 140t272.5 49q207 0 326 -82l79 109l150 -111l-102 -139q45 -86 63 -203t18 -264q0 -164 -23.5 -295t-85 -221t-168 -138.5t-271.5 -48.5q-111 0 -192 21.5t-140 62.5l-76 -102zM354 672 q0 -59 2 -109.5t9 -91.5l448 612q-61 55 -180 56q-80 0 -134.5 -24.5t-86 -80t-45 -144.5t-13.5 -218zM442 268q33 -33 78 -46t107 -13q82 0 135 23.5t85 79t45 146.5t13 226q0 59 -3 108.5t-7 90.5z" />
<glyph unicode="&#xd9;" horiz-adv-x="1214" d="M129 471v877h260v-834q0 -102 16.5 -162.5t51.5 -92.5t88 -41t125 -9q14 0 35.5 2t44 5t44 7t33.5 8v1117h258v-1270q-59 -39 -175.5 -70t-280.5 -31q-147 0 -243.5 30t-153 91.5t-80 153.5t-23.5 219zM328 1665h252l147 -229h-182z" />
<glyph unicode="&#xda;" horiz-adv-x="1214" d="M129 471v877h260v-834q0 -102 16.5 -162.5t51.5 -92.5t88 -41t125 -9q14 0 35.5 2t44 5t44 7t33.5 8v1117h258v-1270q-59 -39 -175.5 -70t-280.5 -31q-147 0 -243.5 30t-153 91.5t-80 153.5t-23.5 219zM528 1436l148 229h252l-217 -229h-183z" />
<glyph unicode="&#xdb;" horiz-adv-x="1214" d="M129 471v877h260v-834q0 -102 16.5 -162.5t51.5 -92.5t88 -41t125 -9q14 0 35.5 2t44 5t44 7t33.5 8v1117h258v-1270q-59 -39 -175.5 -70t-280.5 -31q-147 0 -243.5 30t-153 91.5t-80 153.5t-23.5 219zM340 1430l162 221h223l162 -221h-160l-115 118l-112 -118h-160z" />
<glyph unicode="&#xdc;" horiz-adv-x="1214" d="M129 471v877h260v-834q0 -102 16.5 -162.5t51.5 -92.5t88 -41t125 -9q14 0 35.5 2t44 5t44 7t33.5 8v1117h258v-1270q-59 -39 -175.5 -70t-280.5 -31q-147 0 -243.5 30t-153 91.5t-80 153.5t-23.5 219zM334 1542q0 51 33.5 85t83.5 34q53 0 86.5 -34t33.5 -85 q0 -47 -33.5 -79.5t-86.5 -32.5q-49 0 -83 32.5t-34 79.5zM666 1542q0 51 31.5 85t84.5 34q51 0 86 -34t35 -85q0 -47 -34.5 -79.5t-86.5 -32.5q-53 0 -84.5 32.5t-31.5 79.5z" />
<glyph unicode="&#xdf;" horiz-adv-x="1058" d="M106 0v940q0 231 102.5 329.5t309.5 98.5q98 0 169 -24.5t117 -66.5t67.5 -95.5t21.5 -108.5q0 -84 -27.5 -135t-59.5 -86t-59.5 -62.5t-27.5 -62.5q0 -37 46 -64.5t101.5 -69.5t101.5 -107.5t46 -176.5q0 -176 -102.5 -251.5t-274.5 -75.5q-63 0 -106.5 6t-81.5 16v207 q72 -27 169 -27q88 0 123 32t35 83q0 43 -22.5 73.5t-56 56.5t-72.5 50.5t-73 53t-56.5 66.5t-22.5 91q0 66 25.5 110t55.5 81t55.5 73.5t25.5 85.5q0 53 -26.5 89t-98.5 36q-35 0 -64.5 -10t-52 -36.5t-35 -76t-12.5 -124.5v-918h-240z" />
<glyph unicode="&#xe0;" horiz-adv-x="925" d="M68 262q0 150 124.5 241t395.5 109v74q0 74 -36 95.5t-83 21.5q-68 0 -111 -32t-69 -81l-195 117q14 31 46 64.5t80 63.5t113.5 48t151.5 18q178 0 260 -77.5t82 -214.5v-633q-59 -45 -164.5 -72t-228.5 -27q-166 0 -266 67t-100 218zM176 1393h295l152 -291h-213z M315 274q0 -49 35 -76.5t113 -27.5q31 0 65.5 5t59.5 18v229q-43 -4 -90 -11.5t-88 -22.5t-68 -42t-27 -72z" />
<glyph unicode="&#xe1;" horiz-adv-x="925" d="M68 262q0 150 124.5 241t395.5 109v74q0 74 -36 95.5t-83 21.5q-68 0 -111 -32t-69 -81l-195 117q14 31 46 64.5t80 63.5t113.5 48t151.5 18q178 0 260 -77.5t82 -214.5v-633q-59 -45 -164.5 -72t-228.5 -27q-166 0 -266 67t-100 218zM315 274q0 -49 35 -76.5t113 -27.5 q31 0 65.5 5t59.5 18v229q-43 -4 -90 -11.5t-88 -22.5t-68 -42t-27 -72zM334 1102l153 291h293l-233 -291h-213z" />
<glyph unicode="&#xe2;" horiz-adv-x="925" d="M68 262q0 150 124.5 241t395.5 109v74q0 74 -36 95.5t-83 21.5q-68 0 -111 -32t-69 -81l-195 117q14 31 46 64.5t80 63.5t113.5 48t151.5 18q178 0 260 -77.5t82 -214.5v-633q-59 -45 -164.5 -72t-228.5 -27q-166 0 -266 67t-100 218zM170 1102l188 291h265l188 -291 h-193l-129 143l-127 -143h-192zM315 274q0 -49 35 -76.5t113 -27.5q31 0 65.5 5t59.5 18v229q-43 -4 -90 -11.5t-88 -22.5t-68 -42t-27 -72z" />
<glyph unicode="&#xe3;" horiz-adv-x="925" d="M68 262q0 150 124.5 241t395.5 109v74q0 74 -36 95.5t-83 21.5q-68 0 -111 -32t-69 -81l-195 117q14 31 46 64.5t80 63.5t113.5 48t151.5 18q178 0 260 -77.5t82 -214.5v-633q-59 -45 -164.5 -72t-228.5 -27q-166 0 -266 67t-100 218zM127 1311l168 47q2 -10 7 -27.5 t13.5 -33t21.5 -26.5t34 -11q25 0 52.5 15t58 32.5t67.5 33t82 15.5q47 0 84 -18.5t62.5 -48t43 -69.5t27.5 -83l-168 -45q-4 14 -8 31.5t-12.5 32.5t-20.5 25.5t-31 10.5q-25 0 -53.5 -15.5t-60 -35t-69.5 -34.5t-81 -15q-47 0 -83 18t-62.5 48t-44 70t-27.5 83zM315 274 q0 -49 35 -76.5t113 -27.5q31 0 65.5 5t59.5 18v229q-43 -4 -90 -11.5t-88 -22.5t-68 -42t-27 -72z" />
<glyph unicode="&#xe4;" horiz-adv-x="925" d="M68 262q0 150 124.5 241t395.5 109v74q0 74 -36 95.5t-83 21.5q-68 0 -111 -32t-69 -81l-195 117q14 31 46 64.5t80 63.5t113.5 48t151.5 18q178 0 260 -77.5t82 -214.5v-633q-59 -45 -164.5 -72t-228.5 -27q-166 0 -266 67t-100 218zM156 1227q0 59 38.5 98t98.5 39 q59 0 100 -39t41 -98t-41 -96t-100 -37t-98 37t-39 96zM315 274q0 -49 35 -76.5t113 -27.5q31 0 65.5 5t59.5 18v229q-43 -4 -90 -11.5t-88 -22.5t-68 -42t-27 -72zM545 1227q0 59 38 98t99 39q59 0 100 -39t41 -98t-41 -96t-100 -37q-61 0 -99 37t-38 96z" />
<glyph unicode="&#xe5;" horiz-adv-x="925" d="M68 262q0 150 124.5 241t395.5 109v74q0 74 -36 95.5t-83 21.5q-68 0 -111 -32t-69 -81l-195 117q14 31 46 64.5t80 63.5t113.5 48t151.5 18q178 0 260 -77.5t82 -214.5v-633q-59 -45 -164.5 -72t-228.5 -27q-166 0 -266 67t-100 218zM281 1262q0 92 59 143t141 51 t141.5 -51t59.5 -143t-59.5 -145.5t-141.5 -53.5t-141 53.5t-59 145.5zM315 274q0 -49 35 -76.5t113 -27.5q31 0 65.5 5t59.5 18v229q-43 -4 -90 -11.5t-88 -22.5t-68 -42t-27 -72zM403 1262q0 -35 19.5 -60.5t58.5 -25.5q37 0 57.5 25.5t20.5 60.5t-20.5 60.5t-57.5 25.5 q-39 0 -58.5 -26t-19.5 -60z" />
<glyph unicode="&#xe6;" horiz-adv-x="1447" d="M68 262q0 147 124.5 239.5t395.5 110.5v74q0 74 -36 95.5t-83 21.5q-68 0 -111 -32t-69 -81l-195 117q14 31 46 64.5t80 63.5t113.5 48t151.5 18q90 0 157 -22.5t106 -65.5q51 47 114.5 67.5t149.5 20.5q102 0 173.5 -29.5t116 -81.5t63.5 -121t19 -146q0 -78 -9 -139.5 t-13 -86.5h-526q2 -121 58 -167t146 -46q76 0 133.5 26t94.5 64l112 -182q-53 -53 -144 -84t-216 -31q-80 0 -143.5 16.5t-112.5 45.5q-61 -29 -146.5 -45.5t-175.5 -16.5q-76 0 -144.5 16.5t-119.5 50.5t-80.5 88t-29.5 130zM315 274q0 -49 33 -76.5t115 -27.5q53 0 96 9.5 t72 23.5q-18 47 -30.5 103t-12.5 116q-49 -4 -97.5 -11.5t-87 -23.5t-63.5 -43t-25 -70zM836 575h309q4 12 5 33t1 37q0 86 -36 122t-107 36q-80 0 -123 -49t-49 -179z" />
<glyph unicode="&#xe7;" horiz-adv-x="849" d="M57 487q0 117 23.5 211.5t75 162t131.5 104t190 36.5q150 0 235 -60t113 -159l-202 -96q-16 47 -48 80t-98 33q-92 0 -132 -76t-40 -229q0 -154 46 -232t157 -78q70 0 115 26t79 60l117 -174q-27 -27 -79 -58.5t-138 -47.5l4 -43q4 -72 -18.5 -117t-72.5 -71.5t-127 -36 t-181 -9.5q0 70 2 100.5t12 45.5q12 16 35 21t68 5q27 0 39 -1t16 4.5t3 17.5t-1 39v41q-168 29 -246 156.5t-78 344.5z" />
<glyph unicode="&#xe8;" horiz-adv-x="919" d="M61 475q0 106 20.5 201.5t70 167t130 114.5t203.5 43q102 0 173 -29.5t115 -81.5t63.5 -121t19.5 -146q0 -78 -8 -139.5t-12 -86.5h-527q2 -121 58.5 -167t146.5 -46q76 0 133.5 26t93.5 64l113 -182q-53 -53 -145.5 -84t-214.5 -31q-115 0 -197 34t-134 98.5t-77 156.5 t-25 209zM188 1393h295l152 -291h-213zM309 575h309q4 12 5.5 33t1.5 37q0 86 -36 122t-108 36q-80 0 -123 -49t-49 -179z" />
<glyph unicode="&#xe9;" horiz-adv-x="919" d="M61 475q0 106 20.5 201.5t70 167t130 114.5t203.5 43q102 0 173 -29.5t115 -81.5t63.5 -121t19.5 -146q0 -78 -8 -139.5t-12 -86.5h-527q2 -121 58.5 -167t146.5 -46q76 0 133.5 26t93.5 64l113 -182q-53 -53 -145.5 -84t-214.5 -31q-115 0 -197 34t-134 98.5t-77 156.5 t-25 209zM309 575h309q4 12 5.5 33t1.5 37q0 86 -36 122t-108 36q-80 0 -123 -49t-49 -179zM383 1102l154 291h292l-233 -291h-213z" />
<glyph unicode="&#xea;" horiz-adv-x="919" d="M61 475q0 106 20.5 201.5t70 167t130 114.5t203.5 43q102 0 173 -29.5t115 -81.5t63.5 -121t19.5 -146q0 -78 -8 -139.5t-12 -86.5h-527q2 -121 58.5 -167t146.5 -46q76 0 133.5 26t93.5 64l113 -182q-53 -53 -145.5 -84t-214.5 -31q-115 0 -197 34t-134 98.5t-77 156.5 t-25 209zM178 1102l189 291h264l188 -291h-192l-129 143l-127 -143h-193zM309 575h309q4 12 5.5 33t1.5 37q0 86 -36 122t-108 36q-80 0 -123 -49t-49 -179z" />
<glyph unicode="&#xeb;" horiz-adv-x="919" d="M61 475q0 106 20.5 201.5t70 167t130 114.5t203.5 43q102 0 173 -29.5t115 -81.5t63.5 -121t19.5 -146q0 -78 -8 -139.5t-12 -86.5h-527q2 -121 58.5 -167t146.5 -46q76 0 133.5 26t93.5 64l113 -182q-53 -53 -145.5 -84t-214.5 -31q-115 0 -197 34t-134 98.5t-77 156.5 t-25 209zM170 1227q0 59 39 98t98 39t100.5 -39t41.5 -98t-41 -96t-101 -37q-59 0 -98 37t-39 96zM309 575h309q4 12 5.5 33t1.5 37q0 86 -36 122t-108 36q-80 0 -123 -49t-49 -179zM559 1227q0 59 38 98t99 39q59 0 100.5 -39t41.5 -98t-41 -96t-101 -37q-61 0 -99 37 t-38 96z" />
<glyph unicode="&#xec;" horiz-adv-x="475" d="M-82 1393h295l152 -291h-213zM117 0v979h239v-979h-239z" />
<glyph unicode="&#xed;" horiz-adv-x="475" d="M106 1102l154 291h293l-234 -291h-213zM117 0v979h239v-979h-239z" />
<glyph unicode="&#xee;" horiz-adv-x="475" d="M-84 1102l188 291h265l188 -291h-192l-129 143l-127 -143h-193zM117 0v979h239v-979h-239z" />
<glyph unicode="&#xef;" horiz-adv-x="475" d="M-90 1227q0 59 39 98t98 39t100 -39t41 -98t-41 -96t-100 -37t-98 37t-39 96zM117 0v979h239v-979h-239zM299 1227q0 59 38 98t99 39q59 0 100.5 -39t41.5 -98t-41 -96t-101 -37q-61 0 -99 37t-38 96z" />
<glyph unicode="&#xf1;" horiz-adv-x="985" d="M106 0v934q59 29 161 48t220 19q115 0 192 -25.5t123 -75.5t65.5 -122.5t19.5 -165.5v-612h-240v526q0 63 -4 113.5t-20.5 86.5t-53.5 54.5t-100 18.5q-35 0 -69.5 -4t-53.5 -11v-784h-240zM133 1311l168 47q2 -10 7 -27.5t13.5 -33t21.5 -26.5t34 -11q25 0 52.5 15 t58 32.5t67.5 33t82 15.5q47 0 84 -18.5t62.5 -48t43 -69.5t27.5 -83l-168 -45q-4 14 -8 31.5t-12.5 32.5t-20.5 25.5t-31 10.5q-25 0 -53.5 -15.5t-60 -35t-69.5 -34.5t-81 -15q-47 0 -83 18t-62.5 48t-44 70t-27.5 83z" />
<glyph unicode="&#xf2;" horiz-adv-x="980" d="M61 475q0 125 22.5 222.5t74 165t135.5 103t207 35.5q119 0 199.5 -32.5t130 -96t70 -156.5t20.5 -212q0 -121 -21.5 -218.5t-72 -166t-135.5 -105.5t-212 -37q-119 0 -198.5 33t-129 96.5t-70 156.5t-20.5 212zM176 1393h295l152 -291h-213zM309 477q0 -78 7.5 -134 t25.5 -93t52 -54.5t89 -17.5q106 0 147.5 77t41.5 259q0 150 -34 218.5t-140 68.5q-55 0 -92 -17.5t-58.5 -56.5t-30 -100.5t-8.5 -149.5z" />
<glyph unicode="&#xf3;" horiz-adv-x="980" d="M61 475q0 125 22.5 222.5t74 165t135.5 103t207 35.5q119 0 199.5 -32.5t130 -96t70 -156.5t20.5 -212q0 -121 -21.5 -218.5t-72 -166t-135.5 -105.5t-212 -37q-119 0 -198.5 33t-129 96.5t-70 156.5t-20.5 212zM309 477q0 -78 7.5 -134t25.5 -93t52 -54.5t89 -17.5 q106 0 147.5 77t41.5 259q0 150 -34 218.5t-140 68.5q-55 0 -92 -17.5t-58.5 -56.5t-30 -100.5t-8.5 -149.5zM362 1102l154 291h293l-234 -291h-213z" />
<glyph unicode="&#xf4;" horiz-adv-x="980" d="M61 475q0 125 22.5 222.5t74 165t135.5 103t207 35.5q119 0 199.5 -32.5t130 -96t70 -156.5t20.5 -212q0 -121 -21.5 -218.5t-72 -166t-135.5 -105.5t-212 -37q-119 0 -198.5 33t-129 96.5t-70 156.5t-20.5 212zM178 1102l189 291h264l188 -291h-192l-129 143l-127 -143 h-193zM309 477q0 -78 7.5 -134t25.5 -93t52 -54.5t89 -17.5q106 0 147.5 77t41.5 259q0 150 -34 218.5t-140 68.5q-55 0 -92 -17.5t-58.5 -56.5t-30 -100.5t-8.5 -149.5z" />
<glyph unicode="&#xf5;" horiz-adv-x="980" d="M61 475q0 125 22.5 222.5t74 165t135.5 103t207 35.5q119 0 199.5 -32.5t130 -96t70 -156.5t20.5 -212q0 -121 -21.5 -218.5t-72 -166t-135.5 -105.5t-212 -37q-119 0 -198.5 33t-129 96.5t-70 156.5t-20.5 212zM143 1311l168 47q2 -10 7.5 -27.5t13.5 -33t21.5 -26.5 t33.5 -11q25 0 52.5 15t58 32.5t67.5 33t82 15.5q47 0 84 -18.5t62.5 -48t43 -69.5t27.5 -83l-168 -45q-4 14 -8 31.5t-12 32.5t-20.5 25.5t-30.5 10.5q-25 0 -53.5 -15.5t-60.5 -35t-70 -34.5t-81 -15q-47 0 -82.5 18t-62.5 48t-44 70t-28 83zM309 477q0 -78 7.5 -134 t25.5 -93t52 -54.5t89 -17.5q106 0 147.5 77t41.5 259q0 150 -34 218.5t-140 68.5q-55 0 -92 -17.5t-58.5 -56.5t-30 -100.5t-8.5 -149.5z" />
<glyph unicode="&#xf6;" horiz-adv-x="980" d="M61 475q0 125 22.5 222.5t74 165t135.5 103t207 35.5q119 0 199.5 -32.5t130 -96t70 -156.5t20.5 -212q0 -121 -21.5 -218.5t-72 -166t-135.5 -105.5t-212 -37q-119 0 -198.5 33t-129 96.5t-70 156.5t-20.5 212zM164 1227q0 59 39 98t98 39t100 -39t41 -98t-41 -96 t-100 -37t-98 37t-39 96zM309 477q0 -78 7.5 -134t25.5 -93t52 -54.5t89 -17.5q106 0 147.5 77t41.5 259q0 150 -34 218.5t-140 68.5q-55 0 -92 -17.5t-58.5 -56.5t-30 -100.5t-8.5 -149.5zM553 1227q0 59 38 98t99 39q59 0 100 -39t41 -98t-40.5 -96t-100.5 -37 q-61 0 -99 37t-38 96z" />
<glyph unicode="&#xf7;" d="M63 436v197h816v-197h-816zM322 197q0 63 42 104t107 41q66 0 106.5 -43t40.5 -102q0 -61 -40.5 -104.5t-106.5 -43.5t-107.5 42.5t-41.5 105.5zM322 874q0 61 42 103.5t107 42.5q66 0 106.5 -43t40.5 -103q0 -61 -40.5 -104t-106.5 -43t-107.5 42t-41.5 105z" />
<glyph unicode="&#xf8;" horiz-adv-x="978" d="M61 475q0 125 22.5 222.5t74 165t135.5 103t207 35.5q74 0 132 -13t105 -38l51 72l123 -84l-65 -92q39 -61 56.5 -147.5t17.5 -194.5q0 -121 -21.5 -218.5t-72 -166t-135.5 -105.5t-212 -37q-70 0 -125 11.5t-100 34.5l-57 -82l-121 86l65 92q-43 63 -61.5 152t-18.5 204 zM309 413.5q0 -28.5 4 -55.5l295 412q-41 31 -110 31q-55 0 -92 -17.5t-58.5 -56.5t-30 -100.5t-8.5 -149.5v-63.5zM383 203q37 -25 100 -25q106 0 147.5 77t41.5 259v44.5t-2 41.5z" />
<glyph unicode="&#xf9;" horiz-adv-x="976" d="M98 406v573h240v-541q0 -59 4 -105t21.5 -78t53.5 -49.5t99 -17.5q33 0 65.5 7.5t49.5 17.5v766h239v-907q-57 -41 -154.5 -66.5t-207.5 -25.5q-127 0 -206 27.5t-125 81.5t-62.5 133t-16.5 184zM152 1393h294l152 -291h-213z" />
<glyph unicode="&#xfa;" horiz-adv-x="976" d="M98 406v573h240v-541q0 -59 4 -105t21.5 -78t53.5 -49.5t99 -17.5q33 0 65.5 7.5t49.5 17.5v766h239v-907q-57 -41 -154.5 -66.5t-207.5 -25.5q-127 0 -206 27.5t-125 81.5t-62.5 133t-16.5 184zM389 1102l154 291h293l-234 -291h-213z" />
<glyph unicode="&#xfb;" horiz-adv-x="976" d="M98 406v573h240v-541q0 -59 4 -105t21.5 -78t53.5 -49.5t99 -17.5q33 0 65.5 7.5t49.5 17.5v766h239v-907q-57 -41 -154.5 -66.5t-207.5 -25.5q-127 0 -206 27.5t-125 81.5t-62.5 133t-16.5 184zM168 1102l188 291h265l188 -291h-193l-129 143l-127 -143h-192z" />
<glyph unicode="&#xfc;" horiz-adv-x="976" d="M98 406v573h240v-541q0 -59 4 -105t21.5 -78t53.5 -49.5t99 -17.5q33 0 65.5 7.5t49.5 17.5v766h239v-907q-57 -41 -154.5 -66.5t-207.5 -25.5q-127 0 -206 27.5t-125 81.5t-62.5 133t-16.5 184zM158 1227q0 59 39 98t98 39t100 -39t41 -98t-41 -96t-100 -37t-98 37 t-39 96zM547 1227q0 59 38 98t99 39q59 0 100 -39t41 -98t-41 -96t-100 -37q-61 0 -99 37t-38 96z" />
<glyph unicode="&#xff;" horiz-adv-x="952" d="M31 979h260l129 -492q18 -68 33.5 -114.5t29.5 -69.5l201 676h248l-348 -1067q-29 -90 -65 -145.5t-78 -87t-89 -43t-98 -11.5q-92 0 -141.5 22.5t-71.5 45.5l100 182q16 -14 44 -29.5t65 -15.5q47 0 74.5 33t50.5 108l14 52q-49 37 -92 114.5t-84 212.5zM154 1227 q0 59 38.5 98t98.5 39q59 0 100 -39t41 -98t-41 -96t-100 -37t-98 37t-39 96zM543 1227q0 59 37.5 98t99.5 39q59 0 100 -39t41 -98t-41 -96t-100 -37q-61 0 -99 37t-38 96z" />
<glyph unicode="&#x152;" horiz-adv-x="1730" d="M88 668q0 162 23.5 292t85 221t168 140t272.5 49q70 0 121 -9t92 -28v15h788v-224h-528v-303h444v-227h-444v-371h549v-223h-809v14q-86 -37 -227 -37q-158 0 -261.5 46.5t-164 134.5t-85 216t-24.5 294zM354 672q0 -135 14.5 -224.5t46 -142.5t84 -74.5t128.5 -21.5 q72 0 128 18.5t95 63.5v772q-37 41 -91 58.5t-126 17.5q-80 0 -134.5 -24.5t-86 -80t-45 -144.5t-13.5 -218z" />
<glyph unicode="&#x153;" horiz-adv-x="1533" d="M61 475q0 125 22.5 222.5t74 165t135.5 103t207 35.5q109 0 184.5 -26.5t124.5 -79.5q49 49 120.5 77.5t170.5 28.5q102 0 172.5 -29.5t115 -81.5t63.5 -121t19 -146q0 -78 -8 -139.5t-12 -86.5h-526q2 -121 58 -167t146 -46q76 0 133.5 26t94.5 64l112 -182 q-53 -53 -145 -84t-215 -31q-207 0 -311 109q-51 -53 -129 -81t-189 -28q-119 0 -198.5 33t-129 96.5t-70 156.5t-20.5 212zM309 477q0 -78 7.5 -134t25.5 -93t52 -54.5t89 -17.5q106 0 147.5 77t41.5 259q0 150 -34 218.5t-140 68.5q-55 0 -92 -17.5t-58.5 -56.5 t-30 -100.5t-8.5 -149.5zM924 575h309q4 12 5 33t1 37q0 86 -36 122t-107 36q-80 0 -123 -49t-49 -179z" />
<glyph unicode="&#x178;" horiz-adv-x="1073" d="M10 1348h285l248 -619l245 619h275l-397 -910v-438h-258v438zM262 1542q0 51 34 85t83 34q53 0 87 -34t34 -85q0 -47 -34 -79.5t-87 -32.5q-49 0 -83 32.5t-34 79.5zM594 1542q0 51 31.5 85t85.5 34q51 0 85.5 -34t34.5 -85q0 -47 -34.5 -79.5t-85.5 -32.5 q-53 0 -85 32.5t-32 79.5z" />
<glyph unicode="&#x2c6;" horiz-adv-x="849" d="M104 1102l189 291h264l188 -291h-192l-129 143l-127 -143h-193z" />
<glyph unicode="&#x2dc;" horiz-adv-x="929" d="M104 1311l168 47q2 -10 7.5 -27.5t13.5 -33t21.5 -26.5t33.5 -11q25 0 52.5 15t58 32.5t67.5 33t82 15.5q47 0 84 -18.5t62.5 -48t43 -69.5t27.5 -83l-168 -45q-4 14 -8 31.5t-12 32.5t-20.5 25.5t-30.5 10.5q-25 0 -53.5 -15.5t-60.5 -35t-69.5 -34.5t-80.5 -15 q-47 0 -83 18t-62.5 48t-44 70t-28.5 83z" />
<glyph unicode="&#x2000;" horiz-adv-x="876" />
<glyph unicode="&#x2001;" horiz-adv-x="1753" />
<glyph unicode="&#x2002;" horiz-adv-x="876" />
<glyph unicode="&#x2003;" horiz-adv-x="1753" />
<glyph unicode="&#x2004;" horiz-adv-x="584" />
<glyph unicode="&#x2005;" horiz-adv-x="438" />
<glyph unicode="&#x2006;" horiz-adv-x="292" />
<glyph unicode="&#x2007;" horiz-adv-x="292" />
<glyph unicode="&#x2008;" horiz-adv-x="219" />
<glyph unicode="&#x2009;" horiz-adv-x="350" />
<glyph unicode="&#x200a;" horiz-adv-x="97" />
<glyph unicode="&#x2010;" horiz-adv-x="659" d="M63 428v229h535v-229h-535z" />
<glyph unicode="&#x2011;" horiz-adv-x="659" d="M63 428v229h535v-229h-535z" />
<glyph unicode="&#x2012;" horiz-adv-x="659" d="M63 428v229h535v-229h-535z" />
<glyph unicode="&#x2013;" horiz-adv-x="1003" d="M63 428v229h877v-229h-877z" />
<glyph unicode="&#x2014;" horiz-adv-x="1671" d="M63 428v229h1547v-229h-1547z" />
<glyph unicode="&#x2018;" horiz-adv-x="454" d="M63 924l119 424h211l-82 -424h-248z" />
<glyph unicode="&#x2019;" horiz-adv-x="454" d="M63 924l80 424h250l-119 -424h-211z" />
<glyph unicode="&#x201a;" horiz-adv-x="454" d="M63 -129l80 424h250l-119 -424h-211z" />
<glyph unicode="&#x201c;" horiz-adv-x="798" d="M63 924l119 424h211l-82 -424h-248zM406 924l118 424h211l-82 -424h-247z" />
<glyph unicode="&#x201d;" horiz-adv-x="796" d="M63 924l80 424h250l-119 -424h-211zM403 924l82 424h248l-119 -424h-211z" />
<glyph unicode="&#x201e;" horiz-adv-x="796" d="M63 -129l80 424h250l-119 -424h-211zM403 -129l82 424h248l-119 -424h-211z" />
<glyph unicode="&#x2022;" horiz-adv-x="659" d="M61 672q0 57 20.5 107t55.5 86t84 56.5t109 20.5q57 0 107 -20.5t85 -56.5t55.5 -86t20.5 -107q0 -59 -20.5 -109.5t-55.5 -86.5t-85 -56.5t-107 -20.5q-59 0 -108.5 20.5t-84.5 56.5t-55.5 86t-20.5 110z" />
<glyph unicode="&#x2026;" horiz-adv-x="1341" d="M76 129q0 63 41 105t106 42q66 0 108 -44t42 -103q0 -61 -42 -103t-108 -42t-106.5 41t-40.5 104zM522 129q0 63 42 105t108 42t106.5 -44t40.5 -103q0 -61 -41 -103t-106 -42q-66 0 -108 41t-42 104zM969 129q0 63 42 105t107 42q66 0 107 -44t41 -103q0 -61 -41 -103 t-107 -42t-107.5 41t-41.5 104z" />
<glyph unicode="&#x202f;" horiz-adv-x="350" />
<glyph unicode="&#x2039;" horiz-adv-x="647" d="M82 422v166l483 391v-252l-286 -221l286 -221v-254z" />
<glyph unicode="&#x203a;" horiz-adv-x="647" d="M82 31v254l287 221l-287 221v252l483 -391v-166z" />
<glyph unicode="&#x205f;" horiz-adv-x="438" />
<glyph unicode="&#x20ac;" d="M35 424v164h84v52.5t2 47.5h-86v162h98q12 92 42 172t83 137.5t132 90t194 32.5q84 0 143 -18.5t99 -46t63.5 -60.5t36.5 -61l-197 -133q-16 39 -53 66.5t-107 27.5q-86 0 -126 -50.5t-54 -156.5h328v-162h-340v-100h340v-164h-328q23 -123 76 -172t151 -49 q90 0 138.5 28.5t79.5 63.5l106 -209q-10 -12 -35.5 -30.5t-67.5 -36t-100.5 -30t-136.5 -12.5q-123 0 -208 34t-139 93.5t-83 141.5t-41 178h-94z" />
<glyph unicode="&#x2122;" horiz-adv-x="1839" d="M63 1184v164h678v-164h-239v-705h-199v705h-240zM838 479v869h258l92 -285q47 -150 71.5 -236t28.5 -133h4q4 49 23.5 141.5t73.5 237.5l98 275h248v-869h-191v199q0 49 2 110.5t4 118t4 100.5t2 58h-4q-4 -20 -22.5 -98t-59.5 -195l-98 -293h-172l-96 293 q-41 123 -62.5 197.5t-25.5 95.5h-4q2 -12 4 -55t5 -100.5t5 -119t2 -112.5v-199h-190z" />
<glyph unicode="&#x25fc;" horiz-adv-x="983" d="M0 0v983h983v-983h-983z" />
<glyph unicode="&#xfb01;" horiz-adv-x="1107" d="M33 791v188h145v61q0 178 109.5 266.5t292.5 88.5q78 0 140 -11.5t106 -26t71 -28.5t35 -22l-115 -183q-8 6 -28.5 17.5t-51 23t-69.5 18.5t-82 7q-82 0 -125 -34t-43 -112v-65h571v-979h-239v791h-332v-791h-240v791h-145z" />
<glyph unicode="&#xfb02;" horiz-adv-x="1191" d="M33 791v188h145v61q0 180 84 267.5t246 87.5q72 0 119 -14.5t75 -32.5l-88 -179q-35 20 -84 21q-59 0 -85.5 -33t-26.5 -106v-72h246v-188h-246v-791h-240v791h-145zM778 252v1112h240v-1057q0 -51 12 -82.5t80 -31.5h17.5t23.5 2l10 -197q-10 -4 -42 -7t-66 -3 q-61 0 -111.5 11t-86.5 40t-56.5 81t-20.5 132z" />
</font>
</defs>
</svg>
